<svg width="326" height="900" viewBox="0 0 326 900" fill="none" xmlns="http://www.w3.org/2000/svg">
<rect width="326" height="900" rx="48" fill="url(#paint0_linear_914_32249)"/>
<g opacity="0.8">
<path opacity="0.5" fill-rule="evenodd" clip-rule="evenodd" d="M326 444.261V48C326 21.4903 304.51 0 278 0L58.1981 0C66.573 2.76734 78.717 5.77181 95.7139 8.98621C108.243 11.3557 119.517 13.3989 129.745 15.2525C198.822 27.7712 220.19 31.6436 258.337 69.0002C300.605 110.392 302.393 148.31 301.441 204.193C300.982 231.107 296.088 246.609 291.138 262.291C285.81 279.169 280.416 296.254 280.416 328C280.416 377.89 305.641 426.779 326 444.261Z" fill="url(#paint1_linear_914_32249)"/>
<path opacity="0.5" fill-rule="evenodd" clip-rule="evenodd" d="M30.9951 3.09913C36.2808 1.0963 42.0122 0 47.9998 0L278 0C304.509 0 326 21.4903 326 48L326 717.001C303.665 686.606 278.221 605.384 278.221 525.972C278.221 474.537 283.498 448.137 288.725 421.99C293.566 397.776 298.363 373.778 298.886 330.314C299.974 239.915 272.644 188.364 231.453 119.868C190.905 52.4403 156.425 42.1461 73.8584 17.4956C70.6332 16.5327 67.3347 15.5479 63.9595 14.5369C50.3351 10.456 39.4939 6.64463 30.9951 3.09913Z" fill="url(#paint2_linear_914_32249)"/>
</g>
<g opacity="0.8">
<path opacity="0.5" fill-rule="evenodd" clip-rule="evenodd" d="M0 251L0 852C0 878.51 21.4903 900 48 900H149.872C145.272 896.02 138.822 891.637 130.046 886.842C128.371 885.927 126.734 885.036 125.133 884.164C84.1569 861.851 67.0449 852.534 46.9216 791.5C26.4794 729.5 12.9161 682.839 13.4559 601.013C13.7154 561.671 16.0962 539.949 18.4985 518.032C21.0926 494.364 23.7117 470.469 23.7117 423.911C23.7117 352.032 11.0841 278.513 0 251Z" fill="url(#paint3_linear_914_32249)"/>
<path opacity="0.5" fill-rule="evenodd" clip-rule="evenodd" d="M0 555.595V852C0 878.51 21.4903 900 48 900H276.998C268.335 897.854 255.775 895.523 238.195 893.03C139.959 879.098 133.151 877.5 74.66 843.744C25.4309 815.333 19.4419 786.848 20.4271 743.5C20.9022 722.596 26.4296 710.642 32.0257 698.54C38.0336 685.548 44.1206 672.385 44.1206 647.79C44.1206 609.181 20.4272 569.68 0 555.595Z" fill="url(#paint4_linear_914_32249)"/>
</g>
<path d="M204.043 126.399C203.105 116.933 199.078 109.58 191.963 104.339C184.848 99.0976 175.191 96.477 162.994 96.477C154.706 96.477 147.708 97.6504 142 99.9972C136.292 102.266 131.914 105.434 128.864 109.502C125.893 113.57 124.407 118.185 124.407 123.348C124.251 127.65 125.15 131.405 127.105 134.612C129.138 137.82 131.914 140.597 135.432 142.944C138.951 145.212 143.016 147.207 147.63 148.928C152.243 150.571 157.169 151.979 162.407 153.152L183.988 158.315C194.465 160.662 204.082 163.791 212.84 167.702C221.597 171.614 229.181 176.425 235.593 182.135C242.004 187.846 246.969 194.573 250.488 202.318C254.084 210.062 255.922 218.941 256 228.954C255.922 243.66 252.169 256.411 244.741 267.206C237.391 277.923 226.757 286.255 212.84 292.2C199 298.067 182.307 301 162.759 301C143.368 301 126.479 298.028 112.093 292.082C97.784 286.137 86.6029 277.337 78.5494 265.681C70.5741 253.947 66.3909 239.436 66 222.148H115.142C115.689 230.205 117.996 236.933 122.062 242.33C126.206 247.65 131.718 251.678 138.599 254.416C145.558 257.076 153.416 258.406 162.173 258.406C170.774 258.406 178.241 257.154 184.574 254.651C190.986 252.148 195.951 248.667 199.469 244.208C202.988 239.749 204.747 234.625 204.747 228.836C204.747 223.439 203.144 218.902 199.938 215.225C196.811 211.548 192.198 208.419 186.099 205.838C180.078 203.256 172.689 200.909 163.932 198.797L137.778 192.226C117.527 187.298 101.537 179.593 89.8086 169.11C78.0802 158.628 72.2551 144.508 72.3333 126.751C72.2551 112.201 76.1255 99.4887 83.9444 88.6152C91.8416 77.7418 102.671 69.2542 116.432 63.1525C130.193 57.0508 145.831 54 163.346 54C181.173 54 196.733 57.0508 210.025 63.1525C223.395 69.2542 233.794 77.7418 241.222 88.6152C248.65 99.4887 252.481 112.083 252.716 126.399H204.043Z" fill="url(#paint5_linear_914_32249)"/>
<path d="M71.1605 565.905V535.749L191.025 367.484H70.9259V325.593H254.827V355.75L134.846 524.015H255.062V565.905H71.1605Z" fill="url(#paint6_linear_914_32249)"/>
<path d="M204.043 671.398C203.105 661.933 199.078 654.579 191.963 649.338C184.848 644.097 175.191 641.477 162.994 641.477C154.706 641.477 147.708 642.65 142 644.997C136.292 647.265 131.914 650.434 128.864 654.501C125.893 658.569 124.407 663.185 124.407 668.347C124.251 672.65 125.15 676.405 127.105 679.612C129.138 682.819 131.914 685.596 135.432 687.943C138.951 690.212 143.016 692.207 147.63 693.928C152.243 695.57 157.169 696.978 162.407 698.152L183.988 703.315C194.465 705.661 204.082 708.791 212.84 712.702C221.597 716.613 229.181 721.424 235.593 727.135C242.004 732.845 246.969 739.573 250.488 747.317C254.084 755.062 255.922 763.94 256 773.953C255.922 788.66 252.169 801.411 244.741 812.206C237.391 822.923 226.757 831.254 212.84 837.199C199 843.066 182.307 846 162.759 846C143.368 846 126.479 843.027 112.093 837.082C97.784 831.137 86.6029 822.336 78.5494 810.681C70.5741 798.947 66.3909 784.436 66 767.148H115.142C115.689 775.205 117.996 781.932 122.062 787.33C126.206 792.649 131.718 796.678 138.599 799.416C145.558 802.076 153.416 803.406 162.173 803.406C170.774 803.406 178.241 802.154 184.574 799.651C190.986 797.147 195.951 793.666 199.469 789.207C202.988 784.749 204.747 779.625 204.747 773.836C204.747 768.438 203.144 763.901 199.938 760.224C196.811 756.548 192.198 753.419 186.099 750.837C180.078 748.256 172.689 745.909 163.932 743.797L137.778 737.226C117.527 732.298 101.537 724.592 89.8086 714.11C78.0802 703.628 72.2551 689.508 72.3333 671.75C72.2551 657.2 76.1255 644.488 83.9444 633.615C91.8416 622.741 102.671 614.254 116.432 608.152C130.193 602.051 145.831 599 163.346 599C181.173 599 196.733 602.051 210.025 608.152C223.395 614.254 233.794 622.741 241.222 633.615C248.65 644.488 252.481 657.083 252.716 671.398H204.043Z" fill="url(#paint7_linear_914_32249)"/>
<defs>
<linearGradient id="paint0_linear_914_32249" x1="0" y1="0" x2="576.377" y2="208.776" gradientUnits="userSpaceOnUse">
<stop stop-color="#FF9679"/>
<stop offset="1" stop-color="#E55C79"/>
</linearGradient>
<linearGradient id="paint1_linear_914_32249" x1="58.1982" y1="0" x2="451.051" y2="236.812" gradientUnits="userSpaceOnUse">
<stop stop-color="#25109A"/>
<stop offset="1" stop-color="#7F028C"/>
</linearGradient>
<linearGradient id="paint2_linear_914_32249" x1="30.9951" y1="0" x2="535.585" y2="207.61" gradientUnits="userSpaceOnUse">
<stop stop-color="#25109A"/>
<stop offset="1" stop-color="#7F028C"/>
</linearGradient>
<linearGradient id="paint3_linear_914_32249" x1="149.872" y1="900" x2="-134.697" y2="834.285" gradientUnits="userSpaceOnUse">
<stop stop-color="#25109A"/>
<stop offset="1" stop-color="#7F028C"/>
</linearGradient>
<linearGradient id="paint4_linear_914_32249" x1="276.998" y1="900" x2="-59.3965" y2="629.445" gradientUnits="userSpaceOnUse">
<stop stop-color="#25109A"/>
<stop offset="1" stop-color="#7F028C"/>
</linearGradient>
<linearGradient id="paint5_linear_914_32249" x1="66" y1="54" x2="425.321" y2="140.201" gradientUnits="userSpaceOnUse">
<stop stop-color="#FFC0AF"/>
<stop offset="1" stop-color="#EF9DAF"/>
</linearGradient>
<linearGradient id="paint6_linear_914_32249" x1="66" y1="54" x2="425.321" y2="140.201" gradientUnits="userSpaceOnUse">
<stop stop-color="#FFC0AF"/>
<stop offset="1" stop-color="#EF9DAF"/>
</linearGradient>
<linearGradient id="paint7_linear_914_32249" x1="66" y1="54" x2="425.321" y2="140.201" gradientUnits="userSpaceOnUse">
<stop stop-color="#FFC0AF"/>
<stop offset="1" stop-color="#EF9DAF"/>
</linearGradient>
</defs>
</svg>
