<svg width="369" height="476" viewBox="0 0 369 476" fill="none" xmlns="http://www.w3.org/2000/svg">
<path d="M202.111 183.214C217.991 188.542 234.529 191.678 251.264 192.534C260.433 192.984 269.665 192.767 278.725 194.227C280.34 194.335 281.88 194.949 283.123 195.982C284.016 197.059 284.612 198.349 284.854 199.725C287.63 210.101 290.405 220.601 290.764 231.334C291.123 242.066 288.83 253.234 282.328 261.808L249.58 251.79C247.884 251.4 246.29 250.659 244.902 249.615C243.871 248.573 243.032 247.358 242.422 246.027L228.387 219.622L202.111 183.214Z" fill="#853622"/>
<path d="M11.5511 224.221C18.7088 227.467 25.9913 230.775 33.804 231.987C40.4771 233.262 47.3826 232.453 53.5773 229.673C56.5109 228.274 59.1067 226.26 61.1873 223.77C63.1044 221.413 64.6792 218.798 65.8655 216.004C68.3606 210.273 69.7952 204.122 72.5242 198.468C73.8003 195.738 75.4884 193.218 77.5299 190.997C79.5675 188.871 81.8557 186.999 84.3446 185.421C89.5374 182.035 95.2605 179.55 100.609 176.567C106.441 173.725 111.528 169.568 115.467 164.427C119.405 159.285 122.087 153.301 123.299 146.947C126.667 131.943 123.299 116.581 118.543 102.261C117.934 100.397 117.295 98.5484 116.656 96.7C116.235 95.4885 114.27 96.0166 114.691 97.2436C119.665 111.487 124.219 126.755 122.16 141.915C121.353 148.334 119.229 154.519 115.923 160.088C112.638 165.367 108.123 169.779 102.761 172.948C92.7186 179.161 80.3992 182.827 73.3663 192.892C69.842 197.94 68.0955 203.967 66.0838 209.729C64.0722 215.492 61.7642 221.083 57.1016 225.028C52.4389 228.974 45.5775 230.682 39.3087 230.527C31.8079 230.341 24.6034 227.7 17.8044 224.749C16.0578 223.988 14.3113 223.196 12.5647 222.403C12.3311 222.267 12.0527 222.229 11.791 222.298C11.5293 222.366 11.3055 222.536 11.1691 222.768C11.0326 223.001 10.9945 223.278 11.0632 223.539C11.132 223.8 11.3019 224.023 11.5355 224.159L11.5511 224.221Z" fill="#E57B61"/>
<path d="M185.987 263.906C149.891 295.374 113.796 326.837 77.701 358.296C72.4613 362.955 66.6759 368.904 68.1885 375.692C69.592 381.905 76.4534 385.167 82.504 387.388C132.146 405.556 183.419 418.954 235.623 427.399C235.716 443.553 236.24 459.378 235.221 475.5C248.999 457.246 258.662 437.158 265.751 415.439C242.469 411.215 222.898 396.226 203 383.427C183.102 370.628 159.882 359.336 136.631 363.763C174.751 352.495 210.464 334.335 241.985 310.192C245.65 307.381 249.392 304.336 251.342 300.174C254.663 293.308 252.387 284.641 247.381 278.941C242.375 273.241 235.124 269.808 227.826 267.509C213.342 262.949 197.967 261.942 183.008 264.573L185.987 263.906Z" fill="#FCEFEB"/>
<path d="M247.787 407.984C244.933 413.576 248.987 420.239 248.457 426.498C247.802 434.265 240.551 439.499 236.84 446.302C231.99 455.187 233.471 466.028 235.109 476C253.822 460.623 262.695 436.734 270.835 413.995C271.007 413.656 271.108 413.285 271.132 412.906C271.156 412.527 271.103 412.147 270.975 411.789C270.613 411.286 270.091 410.919 269.494 410.749C264.21 408.602 258.811 406.745 253.323 405.188C252.286 404.787 251.158 404.679 250.063 404.877C249.523 404.997 249.05 405.318 248.74 405.774C248.429 406.23 248.306 406.788 248.395 407.331L247.787 407.984Z" fill="#B2482E"/>
<path d="M140.811 249.196C142.698 266.282 146.737 306.666 142.37 312.662C137.068 319.931 124.234 334.749 122.301 343.525C127.509 341.971 132.359 336.1 137.552 334.469C137.552 342.67 143.524 357.985 147.766 366.388C147.966 366.779 148.301 367.085 148.71 367.249C149.119 367.413 149.574 367.424 149.99 367.28C150.407 367.136 150.757 366.847 150.976 366.466C151.194 366.085 151.267 365.638 151.181 365.208C149.715 357.892 144.943 346.227 145.349 339.206C145.552 346.74 152.226 358.498 156.889 365.705C157.114 366.108 157.485 366.41 157.926 366.551C158.367 366.692 158.845 366.66 159.264 366.463C159.683 366.265 160.01 365.916 160.18 365.487C160.35 365.058 160.349 364.58 160.179 364.151C158.198 357.581 153.614 346.895 153.801 340.449C154.612 346.149 159.836 356.851 163.157 362.598C163.355 362.948 163.663 363.223 164.034 363.38C164.405 363.537 164.818 363.568 165.208 363.467C165.598 363.366 165.943 363.139 166.19 362.821C166.437 362.504 166.571 362.114 166.573 361.713C166.573 355.034 162.939 343.54 161.894 337.342C162.955 342.189 164.779 353.015 167.212 357.659C167.405 358.016 167.712 358.298 168.085 358.461C168.457 358.624 168.874 358.658 169.268 358.558C169.663 358.458 170.012 358.23 170.261 357.909C170.51 357.589 170.644 357.194 170.643 356.789C170.643 345.823 164.249 329.468 161.395 319.247C158.198 307.816 161.302 295.685 164.389 284.222L178.159 233.276C167.438 231.153 156.307 233.038 146.893 238.572C142.854 240.964 138.955 246.478 142.308 249.755L140.811 249.196Z" fill="#F2BDB0"/>
<path d="M136.866 241.523C140.546 252.614 140.125 264.573 139.673 276.238L166.931 288.354C172.212 278.371 176.681 267.983 180.295 257.289C168.569 251.376 157.003 245.163 145.598 238.65L136.866 241.523Z" fill="#B2482E"/>
<path d="M45.1564 224.608C41.032 228.791 35.6203 231.478 29.7842 232.242C23.9481 233.005 18.0235 231.8 12.9548 228.819C7.88623 225.838 3.96541 221.253 1.81742 215.794C-0.330574 210.336 -0.582075 204.318 1.103 198.7C6.82605 179.596 32.8995 169.888 33.8507 149.975C34.4121 138.124 25.2895 127.578 25.0868 115.711C24.7749 96.0471 48.3844 81.7573 47.1837 62.14C46.7471 54.8863 42.8641 48.3007 41.2735 41.2179C37.4685 24.3653 48.8367 5.49347 65.5536 1.03569C82.2705 -3.4221 101.654 6.96889 106.956 23.4021C111.634 38.0957 106.301 55.4609 114.332 68.6479C117.092 73.1834 121.193 76.7248 124.687 80.7321C142.261 100.924 141.248 134.645 122.503 153.812C119.385 157.012 115.782 159.916 113.771 163.908C108.703 173.989 108.687 202.739 99.502 209.278C88.1963 217.417 77.9197 186.321 65.1949 192.099C59.9241 194.507 57.1172 200.238 52.7196 204.028C49.133 207.135 44.4079 209.014 41.6634 212.866C38.9188 216.718 40.104 223.739 44.7822 224.049L45.1564 224.608Z" fill="#B2482E"/>
<path d="M27.4104 221.843C36.8191 224.009 45.9795 227.131 54.7469 231.163C55.5578 231.52 55.9321 239.535 55.8073 246.214C55.8073 248.373 65.6316 240.265 66.0995 240.094C67.3158 239.628 80.6488 248.745 82.9255 245.189C85.0151 241.896 97.9271 220.461 101.763 219.731C102.646 219.694 103.509 219.461 104.289 219.048C104.689 218.641 104.993 218.152 105.182 217.615C105.371 217.078 105.439 216.507 105.381 215.941C105.7 212.652 105.457 209.333 104.664 206.125C104.246 204.527 103.433 203.06 102.3 201.855C101.167 200.651 99.7496 199.748 98.1766 199.228C95.2449 198.483 91.9389 199.57 89.21 198.25C90.3172 193.932 89.5374 188.93 86.0911 185.824C82.6448 182.717 76.6099 183.246 74.4891 187.16C74.1167 188.114 73.6408 189.026 73.07 189.878C71.1987 192.037 67.7057 191.027 65.1014 189.878L41.7102 179.347L25.3052 219.094L27.4104 221.843Z" fill="#FCEFEB"/>
<path d="M197.527 172.669C213.667 178.695 251.67 193.358 255.069 199.975C259.186 207.989 266.64 226.085 273.642 231.754C274.531 226.395 271.537 219.468 272.41 214.109C279.739 217.884 296.191 219.437 305.625 219.468C306.069 219.47 306.498 219.312 306.833 219.022C307.168 218.732 307.385 218.331 307.444 217.893C307.503 217.456 307.401 217.011 307.155 216.644C306.909 216.276 306.537 216.01 306.109 215.895C298.889 213.892 286.289 212.789 280.191 209.325C287.022 212.556 300.573 211.935 309.134 211.049C309.577 211.011 309.991 210.813 310.297 210.493C310.604 210.173 310.783 209.752 310.8 209.309C310.817 208.867 310.672 208.433 310.391 208.09C310.11 207.747 309.713 207.518 309.274 207.446C302.491 206.234 290.842 205.473 285.15 202.413C290.624 204.262 302.569 204.448 309.228 204.106C309.628 204.085 310.011 203.932 310.316 203.673C310.621 203.413 310.831 203.061 310.914 202.67C310.998 202.279 310.95 201.871 310.777 201.511C310.605 201.15 310.318 200.856 309.961 200.674C303.972 197.66 292.059 195.688 286.055 193.777C290.873 195.02 301.384 198.297 306.639 198.235C307.049 198.23 307.445 198.087 307.764 197.829C308.082 197.572 308.304 197.216 308.394 196.817C308.484 196.419 308.437 196.002 308.26 195.634C308.083 195.265 307.787 194.967 307.419 194.787C297.563 189.879 280.067 188.124 269.603 186.042C257.923 183.728 248.457 175.496 239.6 167.559C226.449 155.816 213.313 144.069 200.193 132.316C193.46 140.89 190.13 151.632 190.837 162.495C191.149 167.155 194.33 173.104 198.774 171.613L197.527 172.669Z" fill="#FCEFEB"/>
<path d="M195.156 278.118L167.29 418.732C165.933 425.551 165.06 433.845 170.409 438.303C175.367 442.419 182.759 440.773 188.919 438.847C239.37 423.045 288.189 402.475 334.708 377.416C344.668 390.153 354.196 403.21 363.292 416.589C363.017 393.752 358.938 371.119 351.223 349.613C330.202 360.486 305.516 360.486 281.922 362.427C258.328 364.369 232.988 369.572 217.3 387.279C240.583 355.177 257.732 319.078 267.888 280.789C269.073 276.316 270.164 271.641 269.197 267.136C267.638 259.665 260.543 254.26 253.042 252.738C245.541 251.216 237.744 252.955 230.555 255.565C216.295 260.739 203.499 269.264 193.254 280.417L195.156 278.118Z" fill="#FCEFEB"/>
<path d="M73.3038 189.598C64.7738 197.364 48.5715 191.152 40.9148 199.772C37.0163 204.214 37.141 210.645 36.4861 216.578C36.3772 218.298 35.9042 219.976 35.0982 221.502C32.9462 225.012 27.6598 225.727 24.1823 223.599C22.4727 222.43 21.0769 220.862 20.1172 219.031C19.1575 217.201 18.6632 215.164 18.6776 213.099C18.7403 208.968 19.681 204.897 21.4377 201.154C25.6481 190.981 31.917 181.413 40.7745 174.749C49.6319 168.086 61.3119 164.871 71.9627 167.496L73.3038 189.598Z" fill="#B2482E"/>
<path d="M71.3858 236.895C70.9804 232.981 74.7698 230.216 78.6683 230.821L77.1089 236.615C75.3077 236.928 73.4762 237.033 71.6509 236.926L71.3858 236.895Z" fill="white"/>
<path d="M72.3993 236.895V236.196V235.901V235.699C72.3993 235.807 72.3993 235.807 72.3993 235.699L72.5241 235.155L72.6332 234.844V234.705C72.9484 234.009 73.4303 233.401 74.0367 232.934L74.177 232.81L74.4109 232.654L74.9879 232.328C75.0792 232.293 75.1678 232.252 75.253 232.204C75.4714 232.111 75.1595 232.204 75.3622 232.204C75.5649 232.204 75.7988 232.064 76.0171 232.002C76.2369 231.939 76.4611 231.892 76.6877 231.862C76.906 231.862 76.563 231.862 76.8125 231.862C76.911 231.854 77.0102 231.854 77.1088 231.862C77.3427 231.862 77.5766 231.862 77.8105 231.862C77.9143 231.87 78.0185 231.87 78.1224 231.862C78.1224 231.862 78.5434 231.862 78.3563 231.862L77.6545 230.62L76.0951 236.413L76.8125 235.699C75.0975 235.986 73.3556 236.079 71.6196 235.978C71.352 235.982 71.0965 236.09 70.9073 236.278C70.7181 236.467 70.61 236.721 70.606 236.988C70.6099 237.256 70.7175 237.512 70.9063 237.703C71.0951 237.894 71.3506 238.005 71.6196 238.013C73.5347 238.104 75.454 237.984 77.3427 237.656C77.5147 237.61 77.6716 237.52 77.7975 237.394C77.9234 237.269 78.014 237.112 78.06 236.941L79.6194 231.163C79.6918 230.904 79.6588 230.626 79.5275 230.391C79.3962 230.155 79.1771 229.981 78.9177 229.905C77.8267 229.714 76.7077 229.754 75.6332 230.022C74.5586 230.289 73.5525 230.779 72.68 231.458C71.8569 232.099 71.2085 232.935 70.7943 233.891C70.3802 234.846 70.2135 235.89 70.3097 236.926C70.3175 237.191 70.4268 237.443 70.6153 237.631C70.8037 237.819 71.057 237.927 71.3233 237.935C71.4564 237.935 71.5882 237.909 71.7112 237.858C71.8342 237.808 71.9459 237.733 72.04 237.64C72.1342 237.546 72.2088 237.434 72.2598 237.312C72.3107 237.189 72.3369 237.058 72.3369 236.926L72.3993 236.895Z" fill="#E57B61"/>
<path d="M61.889 222.666C62.2416 222.726 62.6025 222.716 62.9509 222.635C63.2993 222.555 63.6281 222.406 63.9184 222.198C64.2086 221.99 64.4543 221.727 64.6414 221.423C64.8284 221.119 64.953 220.782 65.0079 220.43C65.0857 219.91 65.008 219.379 64.7845 218.903C64.561 218.427 64.2015 218.028 63.7511 217.754C63.3008 217.481 62.7794 217.346 62.2524 217.366C61.7253 217.386 61.2159 217.56 60.7878 217.867C60.3598 218.174 60.0321 218.6 59.8458 219.092C59.6594 219.583 59.6228 220.119 59.7403 220.631C59.8578 221.143 60.1243 221.609 60.5065 221.971C60.8887 222.333 61.3696 222.575 61.889 222.666Z" fill="#1B1B1B"/>
<path d="M77.4991 188.619C78.2372 192.143 79.8754 195.417 82.2553 198.125C82.3495 198.219 82.4613 198.294 82.5844 198.344C82.7075 198.395 82.8394 198.421 82.9727 198.421C83.1059 198.421 83.2378 198.395 83.3609 198.344C83.484 198.294 83.5958 198.219 83.69 198.125C83.8767 197.934 83.9811 197.677 83.9811 197.411C83.9811 197.144 83.8767 196.888 83.69 196.696C81.5623 194.231 80.107 191.263 79.464 188.076C79.3916 187.816 79.2187 187.596 78.9832 187.463C78.7478 187.331 78.4692 187.297 78.2086 187.369C77.9481 187.441 77.727 187.613 77.5939 187.848C77.4608 188.082 77.4267 188.36 77.4991 188.619Z" fill="#E57B61"/>
<path d="M82.2859 188.697L80.4146 194.444C80.3426 194.702 80.3761 194.977 80.5076 195.21C80.6392 195.443 80.858 195.615 81.1163 195.687C81.3786 195.75 81.6553 195.712 81.89 195.579C82.1247 195.446 82.2997 195.229 82.3794 194.973L84.2507 189.241C84.3231 188.982 84.289 188.704 84.156 188.47C84.0229 188.235 83.8018 188.063 83.5412 187.991C83.2807 187.919 83.002 187.953 82.7666 188.085C82.5312 188.218 82.3582 188.438 82.2859 188.697Z" fill="#E57B61"/>
<path d="M45.9828 217.386L48.2751 218.426C48.491 218.605 48.7449 218.733 49.0176 218.801C49.2904 218.868 49.5749 218.872 49.8497 218.814C50.1245 218.756 50.3824 218.636 50.604 218.464C50.8256 218.292 51.005 218.072 51.1288 217.821L57.1014 209.946C52.685 211.088 48.7576 213.621 45.9048 217.168L45.9828 217.386Z" fill="#E57B61"/>
<path d="M252.808 249.46C260.823 254.446 269.447 260.147 272.254 269.14C274.094 275.027 273.08 281.41 271.646 287.421C263.848 320.039 244.808 348.619 226.064 376.422C246.776 363.949 271.087 358.748 295.115 361.65L304.471 405.918C266.562 415.237 233.081 438.334 195.032 447.203C185.457 449.439 174.354 450.433 166.728 444.236C157.949 437.107 157.824 423.966 159.056 412.736C161.252 392.721 165.351 372.958 171.297 353.713C163.591 358.609 155.256 362.444 146.518 365.114C161.966 363.253 177.588 366.712 190.79 374.915C191.569 375.292 192.197 375.922 192.568 376.701C192.748 377.565 192.627 378.463 192.225 379.249C186.53 394.246 180.012 408.92 172.701 423.205C144.335 410.282 114.472 400.963 84.5159 392.389C79.2295 390.836 73.8495 389.283 69.2648 386.316C64.6802 383.349 60.9687 378.457 60.7036 373.005C60.345 365.736 65.8497 359.662 71.0114 354.521C101.872 323.767 133.996 293.37 172.482 272.867C178.346 281.379 190.4 283.74 200.443 281.193C210.485 278.646 218.984 272.2 227.187 265.893L246.976 250.687L252.808 249.46Z" fill="#853622"/>
<path d="M94.7144 200.424C98.6753 182.655 116.203 169.856 134.386 167.977C152.569 166.097 170.751 173.631 185.02 185.062C199.289 196.494 210.142 211.467 220.263 226.611C229.323 240.202 255.88 237.344 258.001 253.545C258.297 255.812 233.222 314.54 190.665 298.806C189.542 298.402 188.357 299.738 187.188 299.474C185.628 299.116 184.693 297.641 183.897 296.274L166.338 266.405C162.72 260.192 157.559 253.281 150.448 253.979C145.598 254.414 133.466 257.956 131.844 254.461C127.298 245.003 121.365 236.271 114.238 228.553C106.649 220.617 100.285 211.603 95.3537 201.806L94.7144 200.533V200.424Z" fill="#E57B61"/>
<path d="M151.399 232.359C173.98 235.357 235.327 255.658 258.001 253.499C258.219 240.964 233.362 206.141 233.581 193.622C233.581 191.727 198.197 178.788 189.574 178.338L206.509 178.058C204.599 164.82 204.599 151.378 206.509 138.14C206.843 136.829 206.744 135.446 206.228 134.195C205.502 133.17 204.454 132.416 203.25 132.051C189.215 126.506 173.403 131.71 160.07 138.621C139.704 149.184 115.081 157.478 100.329 174.998C97.7166 178.199 95.5405 181.73 93.857 185.498C91.81 189.959 91.4948 195.017 92.9722 199.695C94.4496 204.374 97.6148 208.341 101.857 210.831C115.548 218.939 136.99 230.433 151.399 232.359Z" fill="#853622"/>
<path d="M338.154 356.246C338.95 362.459 346.061 365.721 349.148 371.188C352.953 377.929 349.944 386.363 350.708 394.083C351.706 404.132 359.051 412.271 366.021 419.618C372.805 396.444 366.707 371.685 360.594 348.325C360.549 347.95 360.428 347.589 360.237 347.263C360.047 346.937 359.792 346.654 359.487 346.43C358.897 346.22 358.253 346.22 357.663 346.43C352.08 347.607 346.567 349.09 341.149 350.872C340.068 351.121 339.077 351.658 338.279 352.425C337.895 352.824 337.681 353.356 337.681 353.908C337.681 354.461 337.895 354.993 338.279 355.392L338.154 356.246Z" fill="#B2482E"/>
<path d="M107.892 359.352C118.215 359.385 128.491 360.732 138.472 363.359C141.325 364.105 144.148 364.913 146.924 365.922C147.186 365.99 147.465 365.953 147.7 365.819C147.936 365.686 148.11 365.467 148.187 365.208C148.246 364.949 148.205 364.677 148.072 364.447C147.939 364.216 147.724 364.044 147.469 363.965C137.53 360.605 127.202 358.517 116.733 357.752C113.786 357.535 110.839 357.41 107.892 357.41C107.623 357.41 107.365 357.517 107.175 357.706C106.985 357.896 106.878 358.152 106.878 358.42C106.878 358.688 106.985 358.945 107.175 359.134C107.365 359.323 107.623 359.43 107.892 359.43V359.352Z" fill="#E57B61"/>
<path d="M109.841 364.011C118.98 364.034 128.109 364.61 137.178 365.735C139.704 366.046 142.23 366.403 144.741 366.807C144.87 366.843 145.005 366.853 145.138 366.837C145.271 366.82 145.399 366.779 145.516 366.713C145.632 366.647 145.735 366.559 145.817 366.454C145.9 366.349 145.96 366.229 145.996 366.1C146.032 365.972 146.042 365.838 146.026 365.705C146.01 365.573 145.967 365.445 145.902 365.329C145.836 365.213 145.747 365.111 145.642 365.029C145.537 364.946 145.416 364.886 145.287 364.85C136.144 363.399 126.921 362.496 117.67 362.148C115.065 362.054 112.446 361.992 109.872 361.992C109.604 361.992 109.346 362.099 109.156 362.288C108.966 362.477 108.859 362.734 108.859 363.002C108.859 363.27 108.966 363.526 109.156 363.716C109.346 363.905 109.604 364.011 109.872 364.011H109.841Z" fill="#E57B61"/>
<path d="M178.829 317.182L174.151 337.172L169.473 357.162L164.795 377.044C163.235 383.676 161.676 390.308 160.116 396.956C158.401 403.429 157.531 410.096 157.528 416.791C157.528 417.614 157.528 418.437 157.684 419.26C157.692 419.526 157.801 419.778 157.989 419.966C158.178 420.153 158.431 420.262 158.697 420.27C158.966 420.27 159.224 420.164 159.414 419.974C159.604 419.785 159.711 419.528 159.711 419.26C159.332 412.659 159.968 406.038 161.598 399.628C163.048 393.011 164.717 386.441 166.276 379.855L170.954 359.973L175.633 340.076L180.311 320.195L180.888 317.725C181.184 316.452 179.235 315.908 178.939 317.182H178.829Z" fill="#E57B61"/>
<path d="M225.877 375.863C217.921 379.797 210.422 384.589 203.515 390.152C201.571 391.716 199.674 393.342 197.823 395.03C197.632 395.222 197.524 395.481 197.524 395.752C197.524 396.022 197.632 396.282 197.823 396.474C198.019 396.653 198.275 396.752 198.541 396.752C198.806 396.752 199.062 396.653 199.258 396.474C205.713 390.586 212.799 385.424 220.388 381.081C222.53 379.86 224.697 378.705 226.891 377.618C227.124 377.484 227.295 377.263 227.365 377.004C227.435 376.745 227.399 376.468 227.265 376.235C227.131 376.003 226.909 375.833 226.649 375.763C226.388 375.693 226.111 375.729 225.877 375.863Z" fill="#E57B61"/>
<path d="M225.441 376.438C219.454 381.104 213.906 386.303 208.864 391.97C207.461 393.554 206.088 395.17 204.747 396.816C204.567 397.014 204.466 397.271 204.466 397.538C204.466 397.806 204.567 398.063 204.747 398.261C204.944 398.444 205.203 398.546 205.472 398.546C205.742 398.546 206.001 398.444 206.198 398.261C210.945 392.345 216.222 386.87 221.963 381.905C223.523 380.523 225.207 379.172 226.891 377.867C227.074 377.674 227.176 377.418 227.176 377.152C227.176 376.887 227.074 376.631 226.891 376.438C226.694 376.254 226.435 376.152 226.166 376.152C225.897 376.152 225.637 376.254 225.441 376.438Z" fill="#E57B61"/>
<path d="M281.641 363.267C283.856 368.672 285.888 374.15 287.739 379.7C289.589 385.25 291.253 390.878 292.729 396.584C293.571 399.69 294.288 402.983 295.037 406.198C295.073 406.327 295.134 406.447 295.216 406.552C295.299 406.657 295.401 406.745 295.518 406.81C295.634 406.876 295.763 406.918 295.895 406.934C296.028 406.951 296.163 406.941 296.292 406.905C296.421 406.869 296.542 406.809 296.647 406.726C296.753 406.644 296.841 406.542 296.907 406.426C296.973 406.31 297.015 406.182 297.031 406.05C297.048 405.917 297.038 405.783 297.002 405.655C295.733 399.959 294.288 394.3 292.667 388.678C291.045 383.055 289.215 377.479 287.177 371.949C286.034 368.843 284.838 365.767 283.591 362.723C283.511 362.47 283.338 362.257 283.106 362.127C282.874 361.997 282.601 361.96 282.343 362.024C282.214 362.058 282.093 362.117 281.988 362.199C281.882 362.28 281.794 362.382 281.729 362.498C281.663 362.613 281.622 362.741 281.607 362.873C281.592 363.006 281.604 363.139 281.641 363.267Z" fill="#E57B61"/>
<path d="M180.654 241.523C170.996 242.197 161.664 245.285 153.52 250.501C153.295 250.643 153.132 250.864 153.065 251.121C152.999 251.378 153.033 251.651 153.162 251.884C153.228 251.999 153.317 252.1 153.422 252.182C153.528 252.263 153.649 252.323 153.778 252.357C153.907 252.392 154.041 252.401 154.174 252.384C154.306 252.366 154.434 252.323 154.55 252.256C160.654 248.34 167.465 245.644 174.604 244.319C176.604 243.944 178.624 243.685 180.654 243.542C180.924 243.543 181.184 243.437 181.376 243.248C181.569 243.059 181.679 242.802 181.683 242.533C181.679 242.264 181.569 242.007 181.376 241.818C181.184 241.629 180.924 241.523 180.654 241.523Z" fill="#853622"/>
<path d="M14.9351 215.972C12.5155 215.136 10.3223 213.755 8.52629 211.937C6.7303 210.118 5.37999 207.911 4.58055 205.488C2.70872 200.181 2.81945 194.38 4.89244 189.148C7.32603 183.232 10.9448 177.873 15.5276 173.398C19.7848 168.971 24.8841 164.793 26.7086 158.735C28.7203 152.196 26.3967 145.238 23.2935 139.46C20.0343 133.387 15.668 127.81 13.6875 121.131C11.785 114.717 11.7539 107.82 11.8474 101.172C11.8914 95.1762 12.4128 89.193 13.4068 83.279C15.4185 71.9093 19.6445 60.6172 27.4416 51.9191C28.424 50.8474 29.4376 49.8222 30.5604 48.8126C31.6832 47.803 30.077 46.4984 29.1257 47.3838C20.2994 55.5538 15.091 66.6905 12.3776 78.2621C11.0509 84.2081 10.2422 90.2572 9.96053 96.3418C9.5051 102.956 9.69835 109.599 10.5375 116.176C11.0395 119.708 12.0478 123.15 13.5316 126.397C15.0545 129.542 16.7678 132.592 18.6621 135.53C22.2019 141.355 25.8821 147.8 25.3675 154.868C24.8685 161.593 19.7069 166.253 15.2469 170.757C10.4663 175.268 6.56909 180.624 3.75406 186.554C1.24295 191.884 0.584583 197.895 1.88277 203.639C3.06974 208.884 6.2937 213.446 10.8494 216.329C11.9574 216.986 13.1406 217.507 14.3737 217.883C15.6212 218.271 16.167 216.329 14.9195 215.925L14.9351 215.972Z" fill="#E57B61"/>
<path d="M10.6779 223.444C13.3088 225.122 16.2934 226.172 19.3988 226.511C22.5042 226.851 25.6464 226.471 28.58 225.401C30.2477 224.8 31.8224 223.968 33.2582 222.931C33.3729 222.864 33.4732 222.775 33.5532 222.669C33.6333 222.563 33.6917 222.442 33.725 222.314C33.7583 222.186 33.7659 222.052 33.7473 221.921C33.7288 221.79 33.6845 221.663 33.6169 221.549C33.5493 221.435 33.4598 221.335 33.3535 221.255C33.2472 221.175 33.1261 221.117 32.9972 221.084C32.8684 221.051 32.7342 221.043 32.6024 221.062C32.4706 221.08 32.3437 221.124 32.229 221.192C29.9109 222.843 27.2379 223.934 24.4225 224.376C21.6072 224.818 18.727 224.6 16.0111 223.739C14.4803 223.272 13.0254 222.586 11.6915 221.704C11.4599 221.568 11.1836 221.53 10.9233 221.597C10.663 221.664 10.4401 221.831 10.3037 222.061C10.1726 222.295 10.1384 222.57 10.2083 222.829C10.2783 223.087 10.4468 223.308 10.6779 223.444Z" fill="#E57B61"/>
<path d="M26.7867 216.36C30.389 215.118 32.0887 211.577 33.3674 208.268C34.5584 204.972 35.9488 201.751 37.5311 198.623C40.6499 192.689 45.1098 186.942 51.5658 184.768C55.4331 183.494 59.55 183.665 63.5577 183.308C65.6273 183.186 67.672 182.794 69.6394 182.143C71.4279 181.509 73.0829 180.551 74.5204 179.316C77.0019 176.986 78.9855 174.18 80.3526 171.068C81.912 167.962 83.2063 164.7 85.0308 161.749C86.9142 158.603 89.4268 155.877 92.4126 153.739C95.3983 151.602 98.7935 150.099 102.387 149.323C103.229 149.152 104.071 149.012 104.913 148.919C105.181 148.915 105.436 148.807 105.626 148.619C105.815 148.43 105.923 148.176 105.927 147.909C105.923 147.643 105.815 147.388 105.626 147.2C105.436 147.011 105.181 146.904 104.913 146.9C101.084 147.314 97.3775 148.49 94.0131 150.357C90.6486 152.225 87.6949 154.747 85.3271 157.772C83.2359 160.674 81.4783 163.8 80.0875 167.092C79.3701 168.645 78.6372 170.198 77.8263 171.752C77.4209 172.513 76.9998 173.305 76.532 173.973C76.1149 174.642 75.6566 175.286 75.1597 175.899C74.1755 177.113 73.0013 178.162 71.6822 179.005C70.0188 180.013 68.1765 180.693 66.2555 181.009C62.1854 181.755 58.0062 181.444 53.9205 182.174C50.3625 182.832 47.0335 184.388 44.2521 186.694C41.5683 188.958 39.2811 191.65 37.4843 194.662C35.5961 197.784 33.9838 201.063 32.6657 204.463C32.0419 206.016 31.4806 207.74 30.81 209.231C30.2063 210.807 29.2643 212.233 28.0498 213.409C27.5232 213.87 26.9151 214.228 26.2565 214.466C26.002 214.545 25.7868 214.717 25.6538 214.947C25.5209 215.177 25.4799 215.449 25.5392 215.708C25.5735 215.837 25.6331 215.958 25.7145 216.063C25.796 216.169 25.8976 216.258 26.0136 216.324C26.1295 216.391 26.2576 216.433 26.3903 216.45C26.523 216.467 26.6577 216.458 26.7867 216.423V216.36Z" fill="#E57B61"/>
<path d="M58.8017 168.941C63.5528 168.443 68.1562 167.005 72.3417 164.712C76.5273 162.418 80.2106 159.314 83.1754 155.583C85.1643 153.035 86.8153 150.242 88.0875 147.273C90.6761 141.371 92.563 134.847 97.7247 130.545C100.488 128.455 103.519 126.741 106.738 125.45C109.91 124.148 112.949 122.546 115.814 120.666C118.647 118.802 120.862 116.143 122.176 113.024C122.781 111.572 123.083 110.011 123.064 108.439C123.045 106.866 122.706 105.314 122.067 103.876C121.733 103.19 121.314 102.548 120.82 101.965C120.625 101.778 120.365 101.674 120.094 101.674C119.824 101.674 119.564 101.778 119.369 101.965C119.19 102.16 119.09 102.415 119.09 102.68C119.09 102.944 119.19 103.199 119.369 103.394C120.18 104.48 120.721 105.741 120.949 107.074C121.176 108.408 121.084 109.776 120.679 111.067C119.809 114.003 117.996 116.573 115.518 118.383C110.216 122.515 103.385 124.037 97.8962 127.889C95.1498 129.82 92.8742 132.342 91.2375 135.267C89.7088 138.133 88.3701 141.095 87.2298 144.136C86.1046 147.035 84.6888 149.814 83.0038 152.43C81.3116 154.9 79.2921 157.131 77.0001 159.062C72.4149 162.968 66.8635 165.58 60.9225 166.627C60.174 166.766 59.5502 166.844 58.8017 166.922C58.5354 166.929 58.2821 167.038 58.0936 167.226C57.9052 167.414 57.7959 167.666 57.7881 167.931C57.7881 168.064 57.8143 168.195 57.8652 168.318C57.9162 168.44 57.9909 168.551 58.085 168.645C58.1791 168.739 58.2908 168.813 58.4138 168.864C58.5368 168.915 58.6686 168.941 58.8017 168.941Z" fill="#E57B61"/>
<path d="M95.4316 67.9956C94.995 73.0747 97.5524 77.641 100.437 81.6173C101.997 83.7142 103.556 85.7178 105.116 87.8302C105.864 88.8709 106.675 89.9428 107.268 91.0611C107.579 91.5892 107.891 92.1173 108.172 92.6143L108.562 93.4221L108.733 93.7948L108.843 94.0278V94.1209C109.908 96.508 110.297 99.1403 109.965 101.732C109.435 104.915 108.105 107.912 106.098 110.445C101.95 115.959 95.6499 119.345 90.0672 123.213C84.2497 127.208 79.0488 132.027 74.629 137.518C74.0676 138.217 73.5219 138.932 72.9761 139.662C72.8437 139.894 72.8071 140.167 72.874 140.425C72.941 140.684 73.1062 140.905 73.3347 141.044C73.5724 141.172 73.8498 141.204 74.1106 141.135C74.3714 141.066 74.5958 140.9 74.7382 140.671C78.9164 135.081 83.9157 130.148 89.5682 126.04C95.2601 121.908 101.747 118.584 106.425 113.226C108.679 110.748 110.375 107.82 111.4 104.636C112.293 101.705 112.331 98.58 111.509 95.6275C110.121 90.6572 106.706 86.5723 103.712 82.5339C102.137 80.5441 100.719 78.4356 99.4705 76.2276C98.9082 75.2413 98.4484 74.2004 98.0982 73.1211C97.9268 72.5649 97.7862 71.9998 97.6772 71.4282C97.5735 70.9162 97.5109 70.3968 97.49 69.8749C97.4433 69.2804 97.4433 68.6832 97.49 68.0887C97.4592 67.8405 97.3384 67.6121 97.1502 67.4465C96.9621 67.2809 96.7197 67.1896 96.4686 67.1896C96.2176 67.1896 95.9752 67.2809 95.787 67.4465C95.5989 67.6121 95.4781 67.8405 95.4472 68.0887L95.4316 67.9956Z" fill="#E57B61"/>
<path d="M59.1445 130.436C65.8344 126.102 72.649 121.676 78.0914 115.789C83.4949 110.235 86.8247 103.004 87.5258 95.3017C87.7598 91.445 87.0087 87.5921 85.3427 84.1029C83.6273 80.4994 81.257 77.2687 79.6508 73.603C76.8935 67.0936 75.7747 60.0118 76.3916 52.9735C77.0086 45.9353 79.3426 39.1538 83.1907 33.2189C83.6741 32.4888 84.1887 31.7588 84.7501 31.0598C84.8198 30.9462 84.8658 30.8198 84.8855 30.688C84.9052 30.5563 84.8981 30.4218 84.8646 30.2929C84.8312 30.164 84.772 30.0431 84.6907 29.9374C84.6095 29.8316 84.5077 29.7432 84.3914 29.6774C84.1589 29.5456 83.8839 29.5091 83.6248 29.5758C83.3657 29.6425 83.1429 29.8071 83.0035 30.0347C78.7128 35.7647 75.9062 42.46 74.8322 49.5278C73.6685 56.6188 74.2028 63.8833 76.3916 70.7296C77.6198 74.2738 79.2413 77.6704 81.2258 80.8565C82.3289 82.588 83.2885 84.4061 84.0951 86.2928C84.7669 87.9644 85.2025 89.721 85.3894 91.5119C86.138 98.8431 83.1907 106.252 78.6528 111.921C73.6938 118.134 67.1131 122.794 60.5168 127.05C59.7059 127.578 58.9574 128.106 58.0841 128.603C56.9925 129.317 58.0841 131.073 59.1133 130.358L59.1445 130.436Z" fill="#E57B61"/>
<path d="M69.5617 17.9972C63.9672 22.2843 59.8816 28.2278 57.8922 34.9734C55.9028 41.719 56.112 48.9193 58.4898 55.539C60.0784 59.1667 61.9177 62.6803 63.9945 66.0545C66.0622 69.3426 67.3329 73.0651 67.7059 76.9271C67.6848 80.7827 66.6585 84.5667 64.7275 87.9084C62.8406 91.5275 60.5015 94.898 58.4898 98.4549C54.1874 106.142 51.8272 114.757 51.6128 123.555C51.6128 124.658 51.6128 125.745 51.6128 126.833C51.6128 127.92 53.6868 128.137 53.64 126.833C53.3003 118.18 55.1334 109.579 58.9732 101.81C60.7977 98.1597 63.1057 94.7893 65.2109 91.2635C67.3171 87.9367 68.7869 84.2504 69.5461 80.3908C70.0485 76.4848 69.4152 72.5173 67.7215 68.959C66.1621 65.34 63.9166 62.047 62.0921 58.5367C60.4232 55.4457 59.3147 52.0859 58.8173 48.6115C58.3698 45.3092 58.4699 41.9564 59.1136 38.6864C60.3264 32.029 63.6884 25.948 68.6884 21.3678C69.3121 20.8086 69.9515 20.2961 70.6065 19.8146C70.8346 19.6756 71.0006 19.4548 71.0702 19.1976C71.1398 18.9404 71.1078 18.6665 70.9807 18.4322C70.841 18.2009 70.6165 18.0326 70.3546 17.9631C70.0928 17.8935 69.814 17.9281 69.5772 18.0594L69.5617 17.9972Z" fill="#E57B61"/>
<path d="M52.5791 145.875C50.0058 146.184 47.5479 147.117 45.4214 148.594C43.2747 150.128 41.3987 152.007 39.8699 154.154C36.6107 158.612 34.8174 163.8 33.0241 168.941C31.2308 174.082 29.2347 179.611 25.4141 183.759C23.3418 185.826 21.1496 187.771 18.849 189.583C16.5979 191.401 14.6913 193.605 13.2195 196.091C11.891 198.52 11.0806 201.197 10.8391 203.952C10.5976 206.708 10.9302 209.484 11.8161 212.105C12.0656 212.773 12.3307 213.441 12.6425 214.078C12.7088 214.193 12.7974 214.295 12.9031 214.376C13.0089 214.457 13.1297 214.517 13.2587 214.552C13.3876 214.586 13.5222 214.595 13.6547 214.578C13.7871 214.56 13.9148 214.517 14.0304 214.451C14.2616 214.314 14.4301 214.094 14.5 213.835C14.5699 213.577 14.5357 213.302 14.4047 213.068C13.3487 210.753 12.8024 208.241 12.8024 205.698C12.8024 203.156 13.3487 200.643 14.4047 198.328C15.5708 195.891 17.2268 193.718 19.2701 191.944C21.3597 190.034 23.652 188.356 25.6948 186.399C29.8585 182.407 32.2288 177.22 34.1625 171.892C35.987 166.875 37.4528 161.78 40.291 157.214C41.5614 155.109 43.1379 153.204 44.9692 151.56C46.6905 149.991 48.7576 148.848 51.0041 148.221C51.5418 148.075 52.0889 147.966 52.6415 147.894C52.9079 147.887 53.1612 147.778 53.3496 147.59C53.538 147.402 53.6473 147.15 53.6551 146.885C53.6551 146.388 53.1873 145.798 52.6415 145.875H52.5791Z" fill="#E57B61"/>
<path d="M56.4625 152.694C53.518 154.896 50.953 157.561 48.8682 160.584C46.7806 163.558 45.2243 166.868 44.2679 170.37C43.8157 172.078 44.4082 174.579 46.6226 174.253C46.8815 174.18 47.1015 174.009 47.2355 173.777C47.3696 173.545 47.4071 173.27 47.3399 173.01C47.2635 172.755 47.0915 172.538 46.8594 172.405C46.6272 172.272 46.3527 172.233 46.0924 172.296C46.1597 172.288 46.2278 172.288 46.2951 172.296C46.2951 172.389 46.0768 172.296 46.2951 172.296C46.4355 172.296 46.2951 172.202 46.2951 172.296C46.2951 172.42 46.1548 172.296 46.2951 172.296C46.2951 172.171 46.2016 172.109 46.2951 172.296V172.125V171.938C46.2951 171.69 46.2951 172.094 46.2951 171.814V171.41V171.162C46.2951 171.286 46.2951 170.991 46.2951 171.162C46.2951 171.038 46.4979 170.401 46.6226 170.028C47.0764 168.55 47.6501 167.111 48.338 165.726C49.7115 162.887 51.5039 160.269 53.6556 157.959C54.87 156.666 56.1953 155.482 57.6165 154.418C57.842 154.277 58.0047 154.055 58.0714 153.798C58.138 153.541 58.1036 153.268 57.9751 153.036C57.8384 152.805 57.6167 152.638 57.3574 152.568C57.0981 152.498 56.8217 152.532 56.5873 152.663L56.4625 152.694Z" fill="#E57B61"/>
<path d="M34.8332 121.163C34.4625 123.745 34.7952 126.378 35.7965 128.789C36.7978 131.199 38.431 133.296 40.5251 134.862C40.6408 134.93 40.7687 134.974 40.9014 134.992C41.0342 135.01 41.1692 135.002 41.2988 134.968C41.4284 134.934 41.5501 134.875 41.6568 134.794C41.7635 134.713 41.8532 134.613 41.9208 134.497C41.9884 134.382 42.0325 134.255 42.0507 134.122C42.0688 133.99 42.0606 133.856 42.0266 133.727C41.9926 133.597 41.9334 133.476 41.8523 133.37C41.7713 133.264 41.67 133.174 41.5543 133.107C39.8301 131.786 38.4825 130.039 37.6455 128.039C36.8084 126.039 36.5109 123.856 36.7825 121.706C36.8463 121.449 36.8092 121.178 36.6788 120.947C36.5484 120.716 36.3346 120.543 36.0808 120.464C35.8223 120.392 35.5458 120.425 35.312 120.556C35.0781 120.687 34.906 120.906 34.8332 121.163Z" fill="#E57B61"/>
<path d="M44.8761 91.2941C43.1234 93.2289 41.9958 95.6441 41.6398 98.2259C41.2838 100.808 41.716 103.436 42.8801 105.77C42.9464 105.886 43.0349 105.987 43.1407 106.068C43.2464 106.15 43.3672 106.209 43.4962 106.244C43.6252 106.279 43.7598 106.288 43.8922 106.27C44.0246 106.253 44.1523 106.21 44.268 106.143C44.4961 106.004 44.6621 105.783 44.7317 105.526C44.8013 105.269 44.7693 104.995 44.6422 104.761C43.6855 102.817 43.3333 100.632 43.6305 98.4879C43.9278 96.3433 44.8611 94.336 46.3108 92.723C46.501 92.5335 46.6079 92.2765 46.6079 92.0086C46.6079 91.7406 46.501 91.4836 46.3108 91.2941C46.1205 91.1046 45.8625 90.9981 45.5935 90.9981C45.3244 90.9981 45.0664 91.1046 44.8761 91.2941Z" fill="#E57B61"/>
<path d="M10.7555 185.917C8.15724 188.75 6.31674 192.188 5.40375 195.915C4.49077 199.642 4.53468 203.538 5.53146 207.243C6.08305 209.31 6.9509 211.28 8.1045 213.084C8.17208 213.199 8.26179 213.3 8.3685 213.38C8.47521 213.461 8.59684 213.52 8.72644 213.554C8.85605 213.588 8.99107 213.596 9.12383 213.578C9.25659 213.56 9.38448 213.516 9.50018 213.449C9.61588 213.381 9.71714 213.292 9.79817 213.186C9.87921 213.079 9.93843 212.958 9.97246 212.829C10.0065 212.7 10.0147 212.566 9.9965 212.433C9.97835 212.301 9.93422 212.174 9.86664 212.059C8.03415 209.096 6.98065 205.722 6.80349 202.247C6.62633 198.772 7.33122 195.309 8.85302 192.177C9.70256 190.402 10.8289 188.771 12.1902 187.347C13.0946 186.415 11.66 184.97 10.7555 185.917Z" fill="#E57B61"/>
<path d="M106.067 199.089C111.724 200.155 117.516 200.307 123.221 199.539C129.007 198.763 134.736 197.616 140.374 196.107C146.019 194.678 151.68 193.218 157.294 191.649C162.908 190.08 168.366 188.371 173.824 186.477C179.282 184.582 184.662 182.485 189.995 180.264L191.944 179.425C192.059 179.358 192.159 179.268 192.239 179.163C192.319 179.057 192.378 178.936 192.411 178.808C192.444 178.679 192.452 178.546 192.433 178.414C192.415 178.283 192.37 178.157 192.303 178.043C192.163 177.815 191.942 177.65 191.683 177.581C191.425 177.511 191.15 177.543 190.915 177.67C185.717 179.906 180.482 181.977 175.212 183.883C169.941 185.788 164.478 187.522 158.822 189.086C153.255 190.639 147.641 192.115 142.043 193.559C136.512 195.073 130.906 196.301 125.248 197.241C119.756 198.151 114.159 198.24 108.64 197.505C107.954 197.411 107.252 197.287 106.566 197.147C106.306 197.083 106.031 197.12 105.797 197.249C105.562 197.379 105.386 197.592 105.303 197.846C105.236 198.106 105.273 198.381 105.408 198.613C105.542 198.846 105.762 199.016 106.02 199.089H106.067Z" fill="#853622"/>
<path d="M192.911 130.87L191.351 149.136L189.792 167.48L188.934 177.778C188.934 178.046 189.041 178.302 189.231 178.492C189.421 178.681 189.679 178.788 189.948 178.788C190.217 178.788 190.474 178.681 190.664 178.492C190.855 178.302 190.961 178.046 190.961 177.778L192.521 159.527L194.08 141.184L194.938 130.87C194.934 130.604 194.826 130.349 194.636 130.161C194.447 129.972 194.192 129.865 193.924 129.861C193.657 129.865 193.401 129.972 193.212 130.161C193.023 130.349 192.915 130.604 192.911 130.87Z" fill="#853622"/>
<path d="M134.417 210.877C133.375 213.283 132.682 215.825 132.359 218.426C132.281 218.97 132.874 219.436 133.373 219.436C133.639 219.428 133.892 219.319 134.081 219.131C134.269 218.943 134.378 218.691 134.386 218.426C134.675 216.18 135.273 213.985 136.164 211.902C136.292 211.67 136.327 211.397 136.26 211.14C136.194 210.883 136.031 210.661 135.805 210.52C135.691 210.451 135.564 210.405 135.432 210.385C135.3 210.365 135.165 210.373 135.035 210.406C134.906 210.439 134.785 210.498 134.678 210.579C134.572 210.66 134.484 210.761 134.417 210.877Z" fill="#853622"/>
<path d="M157.949 213.456L155.001 223.024C154.627 224.267 156.561 224.795 156.966 223.552L159.914 213.985C160.303 212.742 158.354 212.214 157.949 213.456Z" fill="#853622"/>
<path d="M184.692 219.002L182.634 232.064C182.563 232.324 182.6 232.601 182.734 232.834C182.869 233.067 183.091 233.237 183.351 233.307C183.612 233.377 183.889 233.341 184.123 233.207C184.357 233.073 184.528 232.852 184.599 232.592L186.657 219.53C186.727 219.27 186.691 218.993 186.557 218.76C186.422 218.527 186.2 218.357 185.94 218.287C185.679 218.217 185.401 218.253 185.167 218.387C184.933 218.521 184.762 218.742 184.692 219.002Z" fill="#853622"/>
<path d="M214.259 227.326C214.181 230.977 213.213 234.554 211.437 237.749C210.798 238.882 212.56 239.908 213.183 238.758C215.144 235.258 216.215 231.333 216.302 227.326C216.271 227.078 216.151 226.85 215.962 226.684C215.774 226.519 215.532 226.427 215.281 226.427C215.03 226.427 214.787 226.519 214.599 226.684C214.411 226.85 214.29 227.078 214.259 227.326Z" fill="#853622"/>
<path d="M142.324 267.602C147.709 269.808 153.016 272.164 158.246 274.669C159.805 275.399 161.255 276.223 162.752 276.891C162.988 277.017 163.263 277.049 163.521 276.98C163.779 276.91 164.001 276.745 164.14 276.518C164.207 276.403 164.25 276.275 164.268 276.144C164.285 276.012 164.276 275.877 164.242 275.749C164.207 275.621 164.147 275.5 164.065 275.395C163.984 275.29 163.882 275.201 163.766 275.135C158.485 272.495 153.115 270.005 147.657 267.664C146.098 266.981 144.46 266.298 142.87 265.645C142.741 265.61 142.606 265.599 142.473 265.616C142.34 265.632 142.212 265.674 142.095 265.74C141.979 265.805 141.876 265.893 141.794 265.998C141.711 266.103 141.65 266.223 141.614 266.352C141.579 266.48 141.568 266.615 141.585 266.747C141.601 266.879 141.643 267.007 141.709 267.123C141.775 267.239 141.863 267.342 141.969 267.424C142.074 267.506 142.195 267.567 142.324 267.602Z" fill="#853622"/>
<path d="M353.562 348.603C358.866 364.833 361.787 381.742 362.233 398.804C362.233 401.181 362.326 403.572 362.233 405.949C362.288 408.273 361.993 410.592 361.359 412.83C361.287 413.089 361.32 413.367 361.451 413.602C361.583 413.838 361.802 414.012 362.061 414.088C362.321 414.151 362.596 414.112 362.828 413.979C363.06 413.846 363.232 413.629 363.309 413.373C363.923 411.295 364.238 409.141 364.244 406.974C364.244 404.815 364.244 402.656 364.244 400.497C364.244 396.21 363.948 391.923 363.558 387.652C362.786 379.037 361.4 370.489 359.41 362.07C358.287 357.41 356.962 352.751 355.465 348.091C355.385 347.837 355.212 347.623 354.981 347.491C354.75 347.358 354.477 347.317 354.217 347.376C353.957 347.453 353.737 347.626 353.603 347.861C353.469 348.096 353.432 348.373 353.5 348.634L353.562 348.603Z" fill="#853622"/>
<path d="M261.151 421.746C259.203 428.425 256.672 434.921 253.588 441.161C250.471 447.387 246.818 453.332 242.672 458.93C240.359 462.057 237.887 465.064 235.265 467.939C235.077 468.133 234.972 468.392 234.972 468.661C234.972 468.93 235.077 469.189 235.265 469.383C235.457 469.569 235.714 469.673 235.982 469.673C236.25 469.673 236.507 469.569 236.699 469.383C246.257 458.856 253.865 446.723 259.171 433.55C260.657 429.853 261.952 426.095 263.054 422.274C263.099 422.025 263.05 421.768 262.914 421.554C262.779 421.339 262.568 421.183 262.323 421.117C262.077 421.051 261.816 421.078 261.59 421.195C261.365 421.311 261.191 421.508 261.104 421.746H261.151Z" fill="#853622"/>
<path d="M240.894 229.843C239.77 233.659 238.879 237.538 238.227 241.461C238.168 241.72 238.209 241.992 238.342 242.222C238.475 242.453 238.69 242.625 238.945 242.704C239.205 242.771 239.481 242.733 239.714 242.6C239.948 242.466 240.119 242.247 240.192 241.989C240.848 238.067 241.738 234.187 242.859 230.371C242.929 230.112 242.893 229.835 242.758 229.602C242.624 229.369 242.402 229.199 242.141 229.129C241.881 229.059 241.603 229.095 241.369 229.229C241.135 229.363 240.964 229.584 240.894 229.843Z" fill="#853622"/>
<path d="M255.022 234.301C255.123 237.76 254.734 241.216 253.868 244.568C253.812 244.82 253.855 245.084 253.988 245.306C254.121 245.527 254.334 245.689 254.584 245.759C254.834 245.829 255.101 245.8 255.33 245.68C255.559 245.559 255.734 245.356 255.817 245.111C256.746 241.564 257.161 237.903 257.049 234.239C257.049 232.934 254.975 232.919 255.022 234.239V234.301Z" fill="#E57B61"/>
<path d="M228.902 192.752L227.421 210.77L227.015 215.895C227.014 216.114 227.085 216.327 227.218 216.501C227.35 216.675 227.537 216.8 227.748 216.858C237.863 218.366 247.847 220.646 257.611 223.677C260.345 224.526 263.048 225.432 265.72 226.395C265.849 226.431 265.984 226.44 266.116 226.423C266.249 226.406 266.377 226.363 266.493 226.297C266.609 226.23 266.711 226.142 266.792 226.036C266.873 225.93 266.933 225.809 266.967 225.681C267.035 225.423 267 225.15 266.869 224.918C266.738 224.686 266.522 224.514 266.266 224.438C256.64 221 246.767 218.295 236.73 216.346C233.923 215.818 231.111 215.341 228.294 214.917L229.042 215.895L230.555 197.816L230.976 192.706C230.972 192.439 230.864 192.185 230.675 191.996C230.486 191.808 230.23 191.7 229.962 191.696C229.695 191.7 229.439 191.808 229.25 191.996C229.061 192.185 228.953 192.439 228.949 192.706L228.902 192.752Z" fill="#E57B61"/>
<path d="M285.228 196.82C291.466 197.856 297.74 198.933 304.05 200.051C305.844 200.362 307.637 200.673 309.446 200.968C309.704 201.031 309.977 200.994 310.209 200.864C310.44 200.734 310.614 200.521 310.693 200.269C310.761 200.009 310.723 199.734 310.589 199.502C310.455 199.27 310.235 199.099 309.976 199.026C303.738 197.991 297.464 196.914 291.154 195.795L285.774 194.863C285.514 194.801 285.239 194.84 285.007 194.973C284.775 195.106 284.603 195.322 284.526 195.578C284.454 195.835 284.488 196.111 284.619 196.344C284.751 196.577 284.97 196.748 285.228 196.82Z" fill="#E57B61"/>
<path d="M285.914 205.24C291.486 206.276 297.064 207.311 302.647 208.347C304.206 208.657 305.765 208.952 307.449 209.263C307.578 209.298 307.713 209.307 307.846 209.289C307.978 209.272 308.106 209.229 308.222 209.163C308.338 209.097 308.439 209.008 308.521 208.903C308.602 208.797 308.662 208.677 308.697 208.548C308.732 208.42 308.741 208.286 308.724 208.154C308.706 208.022 308.663 207.894 308.597 207.779C308.53 207.664 308.441 207.563 308.335 207.481C308.23 207.4 308.109 207.34 307.98 207.306C302.407 206.27 296.835 205.209 291.263 204.122C289.703 203.811 288.05 203.516 286.46 203.205C286.197 203.142 285.921 203.181 285.686 203.313C285.451 203.446 285.276 203.663 285.197 203.92C285.13 204.179 285.167 204.454 285.301 204.687C285.435 204.919 285.655 205.09 285.914 205.162V205.24Z" fill="#E57B61"/>
<path d="M283.466 212.198C290.473 213.234 297.469 214.331 304.456 215.491C304.716 215.554 304.99 215.515 305.223 215.382C305.455 215.249 305.627 215.032 305.703 214.777C305.775 214.519 305.742 214.244 305.61 214.011C305.479 213.778 305.26 213.607 305.001 213.534C297.994 212.436 290.998 211.339 284.012 210.241C283.751 210.178 283.477 210.218 283.245 210.35C283.013 210.483 282.841 210.7 282.764 210.956C282.692 211.213 282.726 211.489 282.857 211.722C282.989 211.954 283.208 212.126 283.466 212.198Z" fill="#E57B61"/>
<path d="M284.557 191.416C284.594 196.701 283.864 201.964 282.39 207.041C281.969 208.594 281.47 209.961 280.924 211.39C280.853 211.65 280.89 211.927 281.024 212.16C281.159 212.393 281.381 212.563 281.641 212.633C281.902 212.703 282.18 212.667 282.414 212.533C282.647 212.399 282.818 212.178 282.889 211.918C284.82 206.832 286.012 201.497 286.429 196.075C286.553 194.522 286.6 192.969 286.584 191.416C286.584 191.148 286.478 190.891 286.288 190.702C286.098 190.513 285.84 190.406 285.571 190.406C285.302 190.406 285.044 190.513 284.854 190.702C284.664 190.891 284.557 191.148 284.557 191.416Z" fill="#E57B61"/>
<path d="M258.484 185.995V186.383C258.484 186.538 258.484 186.228 258.484 186.383V186.601L258.313 187.331L258.063 188.076C258.063 187.952 258.063 188.169 258.063 188.185L257.892 188.542L257.517 189.179L257.284 189.505V189.598C256.945 190 256.569 190.37 256.161 190.701C256.066 190.795 255.992 190.906 255.941 191.029C255.89 191.151 255.863 191.283 255.863 191.416C255.863 191.548 255.89 191.68 255.941 191.802C255.992 191.925 256.066 192.036 256.161 192.13C256.355 192.312 256.611 192.414 256.878 192.414C257.145 192.414 257.401 192.312 257.595 192.13C258.523 191.363 259.285 190.417 259.837 189.349C260.389 188.282 260.719 187.115 260.808 185.917C260.777 185.669 260.656 185.441 260.468 185.275C260.28 185.109 260.037 185.018 259.786 185.018C259.535 185.018 259.293 185.109 259.105 185.275C258.917 185.441 258.796 185.669 258.765 185.917L258.484 185.995Z" fill="#E57B61"/>
<path d="M325.368 367.118C325.895 367.979 326.553 368.754 327.317 369.417C327.723 369.782 328.161 370.11 328.627 370.395C329.146 370.625 329.727 370.68 330.28 370.551C332.35 370.314 334.287 369.415 335.8 367.988C336.736 367.087 335.301 365.658 334.35 366.559C332.979 367.867 331.149 368.591 329.251 368.578L329.765 368.718C328.699 368.054 327.793 367.163 327.114 366.108C326.428 365.006 324.666 366.015 325.368 367.118Z" fill="#E57B61"/>
</svg>
