<svg width="540" height="414" viewBox="0 0 540 414" fill="none" xmlns="http://www.w3.org/2000/svg">
<path d="M383.117 62.301L414.681 42.674C415.259 42.2419 415.945 41.961 416.671 41.8589C417.607 41.9119 418.497 42.2668 419.195 42.8658C423.74 46.0602 427.524 50.1406 430.296 54.837C430.662 55.3379 430.855 55.936 430.848 56.5472C430.664 57.2242 430.246 57.8216 429.661 58.2414C417.457 69.0224 404.437 78.9268 390.707 87.8737C385.94 81.7711 381.617 75.3629 377.768 68.6942L383.117 62.301Z" fill="#FCEFEB"/>
<path d="M427.604 59.7602C428.103 57.8203 427.791 55.7712 426.737 54.0468C425.682 52.3225 423.966 51.0583 421.954 50.5221C418.61 49.7549 414.18 50.9696 412.006 48.3484C409.833 45.7272 411.739 42.4507 412.692 39.5099C413.74 35.4194 413.922 31.1699 413.227 27.0112C412.542 22.8547 412.542 18.6212 413.227 14.4646C413.701 12.3141 414.707 10.3035 416.162 8.60157C417.616 6.89961 419.476 5.55589 421.586 4.68311C426.183 13.2979 444.824 40.7086 446.847 47.1017L427.604 59.7602Z" fill="#853622"/>
<path d="M450.458 60.1437L457.145 53.9903L425.046 0L418.225 5.92966L450.458 60.1437L417.958 5.54607L450.458 60.1437Z" fill="#2C120B"/>
<path d="M409.799 45.9514C416.971 46.4309 425.113 47.4378 429.259 53.0638C430.196 54.2569 430.774 55.6716 430.931 57.1554C431.098 60.1762 428.959 62.8134 426.919 65.1469C420.382 57.7947 409.733 54.0867 404.784 45.6797L409.799 45.9514Z" fill="#EB9C88"/>
<path d="M412.056 29.0093C413.117 29.8508 414.375 30.4354 415.722 30.7136C417.07 30.9918 418.467 30.9555 419.797 30.6075C419.968 30.5869 420.14 30.6269 420.282 30.72C420.424 30.8132 420.525 30.9529 420.567 31.1126C420.608 31.2724 420.586 31.441 420.506 31.5866C420.426 31.7321 420.293 31.8444 420.131 31.9022C418.566 32.2953 416.924 32.3203 415.346 31.9752C413.768 31.6301 412.301 30.925 411.07 29.9203C410.94 29.7947 410.868 29.6253 410.868 29.4488C410.868 29.2723 410.94 29.1029 411.07 28.9773C411.203 28.857 411.38 28.79 411.563 28.79C411.747 28.79 411.923 28.857 412.056 28.9773V29.0093Z" fill="#E57B61"/>
<path d="M411.655 33.8679C412.974 34.8508 414.498 35.5519 416.125 35.9241C417.751 36.2963 419.442 36.3309 421.084 36.0255C421.97 35.8497 422.304 37.1444 421.435 37.3042C419.559 37.6652 417.623 37.6291 415.763 37.1984C413.903 36.7676 412.164 35.9527 410.668 34.8108C410.591 34.7521 410.527 34.6782 410.481 34.5942C410.436 34.5102 410.409 34.4179 410.403 34.3234C410.398 34.2288 410.413 34.1342 410.448 34.0457C410.483 33.9572 410.538 33.8769 410.608 33.8099C410.678 33.7429 410.762 33.6909 410.854 33.6572C410.947 33.6235 411.046 33.6089 411.145 33.6144C411.244 33.6199 411.34 33.6453 411.428 33.689C411.516 33.7327 411.593 33.7936 411.655 33.8679Z" fill="#E57B61"/>
<path d="M439.675 38.7905C438.369 40.1275 437.378 41.7168 436.769 43.4511C436.161 45.1854 435.949 47.0243 436.147 48.8438C436.259 49.871 436.506 50.8806 436.883 51.8486C436.905 51.9325 436.91 52.0199 436.897 52.1057C436.884 52.1915 436.853 52.2739 436.807 52.3482C436.76 52.4226 436.698 52.4873 436.625 52.5387C436.552 52.5901 436.469 52.6272 436.381 52.6477C436.204 52.6868 436.018 52.6587 435.862 52.5692C435.706 52.4798 435.593 52.3361 435.545 52.1682C434.844 50.2846 434.57 48.2796 434.743 46.287C434.916 44.2944 435.532 42.3599 436.548 40.6126C437.134 39.6063 437.853 38.6769 438.688 37.8475C439.307 37.2242 440.36 38.1672 439.675 38.7905Z" fill="#E57B61"/>
<path d="M423.09 43.6496C422.917 44.764 423.201 45.8993 423.884 46.8178C424.566 47.7364 425.594 48.3669 426.752 48.5775C427.909 48.7881 429.107 48.5624 430.095 47.9477C431.082 47.3329 431.783 46.3768 432.05 45.2794C432.317 44.1821 432.13 43.0285 431.527 42.0602C430.925 41.0919 429.954 40.384 428.817 40.0846C427.681 39.7852 426.468 39.9176 425.432 40.454C424.395 40.9903 423.616 41.8892 423.257 42.9623L423.09 43.6496Z" fill="#EB9C88"/>
<path d="M466.691 169.994L504.207 173.191C505.042 173.143 505.864 173.414 506.491 173.944C507.118 174.474 507.499 175.221 507.55 176.02C509.03 181.226 509.355 186.67 508.503 192.003C508.515 192.333 508.45 192.661 508.314 192.964C508.177 193.267 507.972 193.538 507.713 193.756C507.454 193.975 507.148 194.136 506.816 194.228C506.485 194.32 506.136 194.34 505.795 194.288C489.223 195.551 472.576 195.631 455.991 194.528C456.211 186.902 456.959 179.299 458.232 171.768L466.691 169.994Z" fill="#FCEFEB"/>
<path d="M503.321 194.417C504.968 193.182 506.05 191.384 506.34 189.402C506.63 187.42 506.105 185.408 504.876 183.788C502.702 181.151 498.489 179.521 498.489 176.165C498.489 173.064 502.084 171.37 504.742 169.612C508.226 166.992 511.125 163.731 513.268 160.022C515.414 156.344 518.143 153.006 521.36 150.128C524.703 147.459 530.137 146.005 534.283 147.395C532.277 156.873 529.117 189.558 526.593 195.776L503.321 194.417Z" fill="#853622"/>
<path d="M520.975 208.242L530.22 207.363L540 145.796L530.805 146.42L520.975 208.242C524.318 187.464 527.623 166.686 530.889 145.908L520.975 208.242Z" fill="#2C120B"/>
<path d="M498.238 172.935C503.555 177.57 509.306 183.196 508.905 190.068C508.865 191.559 508.39 193.01 507.534 194.256C505.711 196.733 502.318 197.548 499.175 198.172C498.807 188.502 492.838 179.264 494.393 169.706L498.238 172.935Z" fill="#EB9C88"/>
<path d="M510.995 160.932C511.276 162.224 511.878 163.431 512.751 164.452C513.625 165.473 514.742 166.278 516.01 166.798C516.095 166.834 516.171 166.885 516.235 166.949C516.299 167.013 516.349 167.088 516.382 167.17C516.415 167.253 516.432 167.341 516.429 167.429C516.427 167.517 516.407 167.604 516.37 167.685C516.332 167.766 516.279 167.839 516.212 167.9C516.145 167.961 516.066 168.009 515.98 168.041C515.894 168.072 515.802 168.088 515.71 168.086C515.617 168.084 515.526 168.064 515.442 168.029C513.955 167.409 512.648 166.455 511.632 165.247C510.615 164.039 509.921 162.613 509.607 161.092C509.588 160.919 509.64 160.745 509.753 160.608C509.865 160.471 510.028 160.381 510.209 160.357C510.392 160.338 510.576 160.388 510.722 160.495C510.868 160.602 510.966 160.758 510.995 160.932Z" fill="#E57B61"/>
<path d="M507.534 164.512C507.931 166.071 508.673 167.53 509.712 168.79C510.75 170.051 512.06 171.083 513.552 171.816C514.338 172.2 513.786 173.415 512.984 173.031C511.276 172.198 509.779 171.019 508.598 169.575C507.417 168.131 506.58 166.457 506.146 164.672C506.127 164.496 506.182 164.321 506.298 164.183C506.413 164.045 506.581 163.957 506.765 163.937C506.946 163.919 507.128 163.968 507.271 164.076C507.415 164.183 507.509 164.34 507.534 164.512Z" fill="#E57B61"/>
<path d="M526.342 185.002C524.451 185.29 522.645 185.958 521.046 186.964C519.446 187.97 518.088 189.29 517.063 190.836C516.48 191.713 516.019 192.658 515.692 193.649C515.664 193.741 515.615 193.826 515.55 193.898C515.484 193.97 515.404 194.029 515.313 194.069C515.222 194.109 515.123 194.129 515.023 194.13C514.923 194.131 514.824 194.111 514.732 194.071C514.641 194.032 514.559 193.975 514.493 193.903C514.427 193.832 514.377 193.747 514.348 193.656C514.319 193.565 514.31 193.468 514.323 193.373C514.335 193.278 514.369 193.187 514.422 193.106C515.101 191.199 516.198 189.453 517.64 187.984C519.081 186.515 520.834 185.357 522.781 184.587C523.891 184.153 525.054 183.852 526.242 183.692C526.423 183.671 526.607 183.719 526.751 183.827C526.895 183.935 526.988 184.093 527.011 184.267C527.033 184.441 526.982 184.616 526.869 184.754C526.756 184.892 526.59 184.981 526.409 185.002H526.342Z" fill="#E57B61"/>
<path d="M510.175 179.009C509.332 179.79 508.838 180.853 508.796 181.975C508.754 183.096 509.168 184.19 509.951 185.027C510.733 185.864 511.824 186.379 512.995 186.464C514.165 186.55 515.325 186.199 516.232 185.485C517.138 184.772 517.72 183.751 517.857 182.636C517.994 181.521 517.674 180.399 516.965 179.504C516.256 178.609 515.213 178.012 514.053 177.836C512.893 177.66 511.707 177.92 510.744 178.561L510.175 179.009Z" fill="#EB9C88"/>
<path d="M319.822 232.168L366.633 182.285C371.933 176.659 377.416 170.873 384.571 167.645C393.683 163.537 404.232 164.081 414.263 164.704C438.906 166.302 491.167 169.611 491.986 170.778C492.805 171.944 485.75 199.898 482.59 212.845L409.498 210.671C405.369 210.543 400.989 210.495 397.461 212.525C394.99 214.193 392.907 216.331 391.342 218.806L369.274 248.998C358.959 263.111 348.393 277.479 333.899 287.709C319.404 297.938 300.028 303.42 283.059 297.65L291.184 275.482L319.822 232.168Z" fill="#853622"/>
<path d="M254.722 275.418C262.262 286.27 261.61 298.833 285.35 313.777C287.022 314.847 334.836 299.312 339.717 280.66C348.478 247.192 329.536 201.816 314.406 170.506C355.733 150.383 425.732 85.7964 426.1 84.0383C426.468 82.2802 413.077 56.0043 406.038 45.2158C358.787 73.0664 314.274 104.955 273.045 140.49C269.033 143.942 264.954 147.57 262.73 152.269C260.507 156.968 260.339 162.418 260.306 167.645C260.195 187.954 261.125 208.241 263.098 228.508C264.251 240.431 265.756 252.658 263.817 264.357C263.419 266.724 262.419 268.961 260.907 270.873C259.394 272.784 257.414 274.312 255.14 275.322L254.722 275.418Z" fill="#B2482E"/>
<path d="M312.249 169.994C307.513 165.963 301.745 163.206 295.531 162.002C294.711 161.843 294.895 160.596 295.731 160.756C302.142 162.007 308.098 164.845 313.001 168.987C313.62 169.514 312.801 170.505 312.165 169.962L312.249 169.994Z" fill="#853622"/>
<path d="M312.098 172.424C307.241 168.96 301.429 166.932 295.38 166.59C294.527 166.59 294.745 165.311 295.581 165.359C301.88 165.717 307.932 167.834 312.984 171.449C313.67 171.928 312.834 172.903 312.165 172.424H312.098Z" fill="#853622"/>
<path d="M288.576 283.505C290.647 281.028 292.881 278.679 295.263 276.473C297.738 274.129 300.279 271.848 302.887 269.632C303.773 268.897 304.559 268.162 305.562 267.458C305.99 267.056 306.529 266.779 307.116 266.659C308.143 266.587 309.174 266.62 310.193 266.755C311.865 266.883 313.403 267.075 315.024 267.267C318.736 267.698 322.43 268.21 326.125 268.737C326.293 268.772 326.442 268.864 326.544 268.997C326.646 269.129 326.693 269.293 326.677 269.456C326.528 272.575 326.137 275.679 325.507 278.742C325.339 279.653 325.189 280.58 324.955 281.491C324.972 281.592 324.972 281.695 324.955 281.795C324.907 281.897 324.832 281.985 324.737 282.051C324.085 282.355 324.62 282.147 324.737 282.051C324.737 282.051 324.854 281.923 324.737 282.051L324.554 282.243C320.904 285.903 317.059 289.381 313.035 292.664C310.316 294.954 307.319 296.924 304.107 298.529C304 298.574 303.882 298.588 303.767 298.571C303.651 298.554 303.543 298.507 303.455 298.433L298.44 293.639L290.515 286.127L288.693 284.384C288.091 283.825 288.91 282.786 289.512 283.409L294.528 288.204L302.486 295.764L304.325 297.506L303.673 297.41C306.424 296.036 309.004 294.369 311.363 292.44C313.887 290.474 316.378 288.38 318.652 286.222C320.324 284.768 321.778 283.282 323.3 281.779C323.447 281.622 323.604 281.473 323.768 281.332L323.868 281.22C323.868 281.22 323.968 281.124 324.002 281.092C324.554 280.804 323.818 281.284 323.718 281.364C323.617 281.444 323.718 281.507 323.718 281.364C323.718 281.22 323.718 281.06 323.801 280.916C323.918 280.421 324.002 279.925 324.102 279.43C324.811 276.122 325.247 272.766 325.406 269.392L325.958 270.112C322.798 269.664 319.638 269.217 316.479 268.833C314.807 268.609 313.135 268.417 311.33 268.242C310.209 268.13 308.872 268.002 307.869 268.002H307.351H307.167C307.033 268.002 307.317 268.002 307.167 268.002C307.016 268.002 307.267 268.002 307.167 268.002H307.05L306.682 268.258C305.879 268.833 305.127 269.456 304.375 270.08C301.867 272.157 299.359 274.331 297.086 276.473C294.378 278.893 291.848 281.489 289.512 284.241C289.078 284.928 288.058 284.145 288.576 283.505Z" fill="#853622"/>
<path d="M306.448 296.435C301.499 291.646 296.806 286.62 292.388 281.379C291.869 280.739 292.923 280.004 293.458 280.628C297.792 285.794 302.401 290.745 307.267 295.46C307.852 296.019 307.033 297.058 306.448 296.435Z" fill="#853622"/>
<path d="M398.264 207.442L393.399 192.898C393.148 192.13 394.369 191.651 394.619 192.434L399.484 206.979C399.735 207.746 398.515 208.209 398.264 207.442Z" fill="#853622"/>
<path d="M396.826 210.128C393.265 205.737 390.356 200.896 388.182 195.743C388.151 195.667 388.135 195.585 388.136 195.502C388.137 195.42 388.156 195.339 388.19 195.263C388.259 195.11 388.388 194.99 388.55 194.928C388.712 194.867 388.893 194.869 389.053 194.935C389.213 195.001 389.339 195.125 389.403 195.28C391.53 200.327 394.383 205.067 397.879 209.361C398.397 210 397.344 210.735 396.826 210.096V210.128Z" fill="#853622"/>
<path d="M482.774 174.39C482.967 173.986 483.053 173.543 483.024 173.099C482.994 172.656 482.851 172.227 482.607 171.849L483.777 171.577L477.291 199.371C476.672 201.977 476.07 204.598 475.452 207.203C475.268 207.986 473.981 207.81 474.164 207.027L480.651 179.217C481.27 176.612 481.872 173.99 482.49 171.385C482.51 171.264 482.567 171.15 482.655 171.06C482.742 170.969 482.855 170.905 482.98 170.876C483.106 170.847 483.237 170.854 483.358 170.896C483.479 170.939 483.584 171.014 483.66 171.114C484.044 171.668 484.273 172.307 484.326 172.97C484.379 173.633 484.253 174.298 483.961 174.902C483.885 175.043 483.754 175.151 483.597 175.203C483.439 175.255 483.267 175.248 483.115 175.182C482.963 175.117 482.843 174.998 482.78 174.851C482.716 174.704 482.714 174.539 482.774 174.39Z" fill="#853622"/>
<path d="M400.855 51.2736C406.722 59.5591 411.893 68.2757 416.32 77.3417C417.579 79.9202 418.766 82.5095 419.881 85.1094C419.945 85.2641 419.942 85.4369 419.873 85.5898C419.804 85.7426 419.675 85.863 419.513 85.9245C419.351 85.986 419.17 85.9835 419.01 85.9175C418.85 85.8516 418.725 85.7276 418.66 85.5729C414.701 76.3954 409.982 67.5341 404.55 59.0732C403.023 56.6971 401.435 54.3476 399.785 52.0248C399.317 51.3535 400.371 50.6023 400.855 51.2736Z" fill="#853622"/>
<path d="M284.814 258.284C281.365 257.928 277.877 258.381 274.653 259.603C271.428 260.826 268.563 262.781 266.307 265.3C265.755 265.924 264.735 265.124 265.287 264.517C269.047 260.299 274.353 257.617 280.116 257.021C281.744 256.845 283.387 256.845 285.015 257.021C285.851 257.117 285.65 258.348 284.814 258.268V258.284Z" fill="#853622"/>
<path d="M264.451 287.197C272.509 284.48 278.344 277.879 281.537 270.463C285.516 261.257 285.349 250.964 284.529 241.199C283.677 230.97 282.323 220.773 280.651 210.655C278.979 200.858 276.371 191.012 276.505 181.039C276.69 172.394 279.604 164.003 284.864 156.969C290.253 149.971 296.659 143.744 303.889 138.477C319.43 126.7 335.902 116.093 353.158 106.75C370.411 97.1607 388.166 88.53 405.954 79.9631C408.144 78.8923 410.351 77.8374 412.641 76.7665C413.393 76.3989 413.861 77.5657 413.126 77.9333C395.154 86.5641 377.198 95.1948 359.628 104.641C342.156 113.895 325.395 124.326 309.473 135.855C295.112 146.436 279.614 159.43 277.993 177.874C277.123 187.784 279.665 197.677 281.437 207.395C283.198 217.528 284.574 227.714 285.566 237.954C286.519 247.736 287.071 257.869 284.078 267.395C281.893 274.95 276.968 281.515 270.185 285.919C268.541 286.947 266.78 287.794 264.936 288.444C264.133 288.716 263.648 287.549 264.451 287.277V287.197Z" fill="#853622"/>
<path d="M477.424 189.11C466.976 191.939 456.008 191.827 445.259 191.156C434.509 190.485 423.525 189.174 412.725 189.734C407.509 189.931 402.34 190.764 397.344 192.211C392.39 193.699 387.733 195.974 383.569 198.94C375.393 204.805 369.375 212.893 363.741 220.932C358.107 228.972 352.456 237.682 345.184 244.795C344.314 245.658 343.412 246.489 342.492 247.288C341.874 247.847 341.088 246.824 341.706 246.281C349.413 239.52 355.081 231.033 360.899 222.754C366.717 214.475 372.284 206.404 380.075 200.026C383.96 196.818 388.357 194.222 393.098 192.339C397.921 190.512 402.984 189.329 408.144 188.822C418.928 187.688 429.878 188.822 440.544 189.574C451.21 190.325 462.395 190.996 473.095 188.838C474.365 188.583 475.652 188.279 476.906 187.943C477.709 187.72 478.21 188.886 477.391 189.11H477.424Z" fill="#853622"/>
<path d="M84.0292 291.64C82.3574 305.625 75.1017 320.873 70.7383 334.314C97.1196 349.035 159.478 348.156 182.633 329.12C176.163 330.718 157.155 329.711 150.618 328.513C152.189 324.693 153.794 320.697 153.493 316.605C153.192 312.514 150.434 308.262 146.204 307.559C141.974 306.856 133.465 303.707 133.248 302.365C132.545 298.049 131.86 293.734 131.158 289.418C131.442 289.93 114.155 294.741 111.915 298.321C102.703 295.955 84.0292 291.64 84.0292 291.64Z" fill="#FCEFEB"/>
<path d="M393.967 364.987C388.383 363.101 370.561 362.925 364.66 362.861C363.105 362.957 388.249 360.607 394.753 359.44C395.687 359.26 396.527 358.774 397.127 358.066C397.223 357.925 397.279 357.762 397.289 357.594C397.3 357.426 397.265 357.258 397.187 357.106C397.11 356.955 396.993 356.826 396.847 356.73C396.702 356.635 396.533 356.578 396.358 356.564C390.122 355.924 360.079 358.162 364.794 356.356L388.199 350.314C390.005 349.819 392.128 348.828 392.546 347.293C392.58 347.156 392.584 347.014 392.557 346.876C392.529 346.737 392.472 346.606 392.389 346.49C392.305 346.374 392.197 346.276 392.072 346.203C391.946 346.129 391.806 346.081 391.66 346.063C379.522 344.592 366.984 349.084 355.214 346.063C355.03 346.02 354.863 345.927 354.732 345.797C354.6 345.667 354.51 345.504 354.472 345.326C354.433 345.149 354.448 344.965 354.514 344.796C354.581 344.626 354.696 344.478 354.846 344.369C357.471 342.563 369.508 338.902 371.565 336.489C371.691 336.344 371.77 336.168 371.794 335.981C371.817 335.794 371.783 335.605 371.697 335.436C371.61 335.267 371.474 335.126 371.305 335.029C371.137 334.932 370.942 334.884 370.745 334.891C365.462 334.891 350.5 336.489 345.25 336.905C342.561 336.854 339.913 337.547 337.627 338.902C336.022 340.336 334.658 341.996 333.581 343.825C330.752 347.201 327.363 350.111 323.55 352.44C317.626 356.245 311.444 359.667 305.043 362.685L312.984 379.131C318 375.615 334.25 366.009 334.434 365.945C336.105 365.482 373.17 372.483 386.561 372.786C386.777 372.784 386.986 372.714 387.156 372.587C387.327 372.46 387.449 372.283 387.504 372.084C387.559 371.884 387.544 371.673 387.461 371.482C387.378 371.291 387.232 371.132 387.046 371.028C383.953 369.174 374.507 367.752 368.84 367.096C377.158 367.746 385.522 367.628 393.816 366.745C394.003 366.685 394.167 366.575 394.288 366.427C394.41 366.279 394.483 366.1 394.499 365.913C394.515 365.726 394.473 365.538 394.379 365.373C394.284 365.209 394.141 365.074 393.967 364.987Z" fill="#FCEFEB"/>
<path d="M219.162 334.874C224.428 339.014 267.645 378.619 276.79 374.288C293.508 366.392 319.488 353.51 328.75 345.375C331.96 352.375 339.299 368.454 339.182 369.541C338.981 371.411 293.909 402.578 278.562 411.096C276.695 412.251 274.662 413.14 272.527 413.734C269.171 414.252 265.736 414.011 262.496 413.03C236.766 407.037 209.499 386.451 188.718 370.756L219.162 334.874Z" fill="#2C120B"/>
<path d="M330.237 350.458C327.964 351.913 325.972 353.736 324.353 355.844C323.851 356.499 322.831 355.716 323.333 355.061C325.021 352.865 327.091 350.962 329.452 349.435C330.154 348.987 330.94 349.994 330.237 350.458Z" fill="#B2482E"/>
<path d="M331.726 354.948C329.637 356.535 327.461 358.013 325.206 359.375C325.064 359.466 324.892 359.501 324.725 359.474C324.557 359.448 324.406 359.361 324.303 359.232C324.251 359.167 324.214 359.093 324.192 359.014C324.171 358.936 324.166 358.853 324.179 358.773C324.191 358.692 324.221 358.615 324.265 358.546C324.309 358.476 324.368 358.416 324.437 358.369C326.685 357.004 328.856 355.526 330.94 353.941C331.609 353.43 332.378 354.453 331.726 354.948Z" fill="#B2482E"/>
<path d="M333.598 361.677L328.583 364.874C328.513 364.923 328.435 364.959 328.351 364.979C328.268 364.999 328.181 365.004 328.095 364.992C327.923 364.968 327.767 364.879 327.663 364.746C327.559 364.612 327.514 364.444 327.54 364.28C327.565 364.115 327.657 363.966 327.797 363.867L332.812 360.67C332.956 360.579 333.131 360.543 333.302 360.57C333.472 360.596 333.626 360.684 333.732 360.814C333.831 360.95 333.871 361.118 333.843 361.283C333.815 361.447 333.721 361.594 333.581 361.693L333.598 361.677Z" fill="#B2482E"/>
<path d="M336.707 366.936C335.822 367.047 334.962 367.301 334.166 367.688C333.395 368.052 332.689 368.532 332.076 369.11C331.963 369.233 331.806 369.311 331.636 369.329C331.466 369.346 331.295 369.303 331.157 369.206C331.09 369.155 331.034 369.091 330.992 369.019C330.951 368.947 330.925 368.868 330.915 368.786C330.906 368.705 330.914 368.622 330.938 368.543C330.962 368.464 331.003 368.391 331.057 368.327C332.535 366.891 334.469 365.963 336.557 365.69C336.73 365.68 336.901 365.731 337.037 365.834C337.173 365.938 337.264 366.085 337.292 366.249C337.307 366.414 337.254 366.577 337.145 366.705C337.036 366.834 336.879 366.916 336.707 366.936Z" fill="#B2482E"/>
<path d="M356.1 343.425C350.684 349.722 344.114 356.77 334.802 356.419C333.698 356.419 333.966 354.821 335.052 354.821C343.645 355.156 349.814 348.172 354.763 342.418C355.465 341.619 356.786 342.642 356.1 343.441V343.425Z" fill="#E57B61"/>
<path d="M367.653 366.025C360.882 362.968 353.368 361.736 345.919 362.461C345.717 362.453 345.523 362.377 345.374 362.245C345.225 362.114 345.13 361.936 345.106 361.743C345.082 361.551 345.13 361.356 345.243 361.195C345.355 361.033 345.524 360.915 345.719 360.862C353.48 360.096 361.314 361.373 368.372 364.554C368.474 364.598 368.566 364.661 368.642 364.739C368.719 364.817 368.779 364.909 368.819 365.009C368.858 365.11 368.877 365.216 368.873 365.323C368.87 365.43 368.844 365.536 368.798 365.633C368.752 365.731 368.686 365.819 368.604 365.892C368.523 365.965 368.427 366.023 368.322 366.06C368.217 366.098 368.106 366.116 367.994 366.113C367.882 366.109 367.772 366.085 367.67 366.041L367.653 366.025Z" fill="#E57B61"/>
<path d="M364.777 350.601C366.399 356.165 368.553 361.574 371.214 366.76C371.699 367.703 370.11 368.358 369.642 367.367C366.986 362.178 364.827 356.77 363.189 351.209C362.905 350.202 364.476 349.61 364.777 350.601Z" fill="#E57B61"/>
<path d="M84.8816 298.193C87.1152 297.658 89.4524 297.658 91.6859 298.193C93.9149 298.745 96.2436 298.821 98.5069 298.417C99.6337 298.188 100.647 297.603 101.384 296.756C102.121 295.91 102.538 294.851 102.569 293.75C102.386 291.56 99.2258 290.026 97.554 291.64C100.73 289.434 102.051 284.672 99.5769 281.763C97.1026 278.854 90.9503 280.037 90.5993 283.777C89.2952 281.443 85.4835 281.235 83.4439 283.041C82.4976 284.016 81.859 285.226 81.6016 286.533C81.3442 287.839 81.4786 289.189 81.9893 290.425C80.9387 289.946 79.7559 289.797 78.6112 290.001C77.4666 290.205 76.4191 290.751 75.6197 291.56C75.0638 292.336 74.6615 293.203 74.4327 294.117L70.5709 306.28C70.1107 307.552 69.7804 308.864 69.5845 310.196C69.3504 312.178 69.5845 314.384 68.3808 315.982C67.8959 316.605 67.1938 317.069 66.709 317.66C64.7362 319.818 65.221 323.302 67.0099 325.652C68.994 327.802 71.5039 329.449 74.3157 330.447C79.6266 332.762 85.0881 334.748 90.6661 336.392C93.0532 336.981 95.3678 337.811 97.5707 338.87C99.6633 340.179 101.678 341.598 103.606 343.121C108.538 346.583 114.43 348.574 120.541 348.843C120.427 348.194 120.543 347.527 120.87 346.948C121.197 346.369 121.717 345.911 122.347 345.646C122.517 346.223 122.83 346.753 123.26 347.19C123.689 347.627 124.222 347.959 124.814 348.158C125.405 348.357 126.038 348.418 126.66 348.334C127.281 348.25 127.871 348.024 128.382 347.676C128.843 347.264 129.208 346.764 129.453 346.208C129.698 345.653 129.818 345.054 129.806 344.451C129.793 343.848 129.648 343.255 129.38 342.709C129.111 342.163 128.726 341.677 128.249 341.283C127.201 340.569 125.915 340.248 124.636 340.381C123.357 340.513 122.174 341.09 121.311 342.002C118.747 337.868 114.835 334.651 110.176 332.844C108.337 332.141 105.278 332.604 105.679 334.442C105.266 332.366 104.27 330.436 102.797 328.859C101.325 327.283 99.4314 326.119 97.3199 325.492C97.4876 323.372 96.8691 321.264 95.5729 319.536C94.2767 317.809 92.3856 316.573 90.2315 316.046C91.6692 314.256 90.9169 311.683 90.1144 309.541C88.8605 306.344 87.6234 303.036 86.3696 299.791L84.8816 298.193Z" fill="#B2482E"/>
<path opacity="0.43" d="M150.618 328.449L145.886 337.271L159.244 329.328L150.618 328.449Z" fill="#E57B61"/>
<path d="M1.79218 231.735C6.37297 234.421 16.755 246.376 20.1822 250.26C21.0014 251.378 8.32902 233.094 5.42005 227.979C5.02068 227.242 4.89683 226.396 5.06898 225.582C5.11825 225.438 5.20582 225.308 5.32316 225.205C5.44051 225.103 5.5836 225.031 5.73852 224.998C5.89343 224.964 6.05487 224.969 6.20708 225.013C6.3593 225.056 6.49709 225.137 6.60703 225.246C10.6695 229.082 26.2509 250.579 24.8633 246.392L15.9191 227.212C15.2503 225.726 14.7655 223.712 15.6516 222.561C15.7324 222.461 15.8343 222.377 15.9508 222.317C16.0673 222.256 16.1957 222.219 16.3279 222.209C16.4601 222.198 16.5931 222.214 16.7184 222.256C16.8438 222.297 16.9587 222.363 17.0559 222.449C25.1141 229.786 28.9927 240.814 37.9035 247.031C38.0412 247.13 38.2052 247.19 38.3768 247.204C38.5484 247.218 38.7206 247.186 38.874 247.111C39.0273 247.036 39.1555 246.921 39.2441 246.78C39.3326 246.639 39.3778 246.476 39.3747 246.312C39.2075 243.515 35.0112 233.302 35.6298 230.569C35.6614 230.395 35.7465 230.235 35.8743 230.109C36.0021 229.982 36.1667 229.895 36.3467 229.859C36.5267 229.823 36.714 229.839 36.8842 229.906C37.0544 229.973 37.1999 230.087 37.3016 230.233C40.3611 233.765 47.7003 244.809 50.4421 248.549C52.0004 250.344 53.0022 252.52 53.3344 254.831C53.1903 256.731 52.7508 258.6 52.0304 260.377C51.1438 264.205 50.9234 268.147 51.3783 272.044C51.9692 278.213 52.9857 284.337 54.421 290.377L37.7029 294.452C37.3852 289.018 35.1952 272.604 35.1116 272.444C34.5097 271.053 8.11165 250.068 0.22067 241.245C0.0885903 241.102 0.0112374 240.92 0.00113206 240.729C-0.0089733 240.538 0.0488103 240.349 0.165059 240.194C0.281307 240.038 0.449154 239.925 0.64138 239.872C0.833606 239.819 1.03887 239.83 1.22377 239.903C4.36679 240.926 10.8367 246.488 14.5983 249.924C9.3564 244.689 4.65364 238.983 0.555054 232.886C0.466891 232.722 0.436184 232.535 0.467453 232.353C0.498723 232.17 0.590322 232.003 0.728777 231.874C0.867232 231.745 1.04526 231.662 1.23668 231.637C1.42809 231.612 1.62278 231.647 1.79218 231.735Z" fill="#FCEFEB"/>
<path d="M171.231 333.036C161.788 338.511 151.197 341.924 140.214 343.029C129.232 344.134 118.129 342.905 107.701 339.429C86.9709 332.364 57.7643 273.899 54.6881 263.031C54.6881 263.031 18.7273 284.128 23.1744 280.436C27.17 307.927 53.7519 350.633 73.8472 370.676C109.423 406.126 164.309 377.181 172.702 375.119C180.461 373.016 187.913 369.993 194.887 366.12C209.933 358.289 278.912 323.654 292.12 313.233C276.087 305.162 300.379 258.539 256.627 262.679C244.456 267.362 145.501 281.427 157.722 341.091L171.231 333.036Z" fill="#853622"/>
<path d="M140.909 310.181C141.074 310.896 140.907 311.638 140.446 312.247C139.984 312.856 139.264 313.283 138.442 313.436C137.924 313.544 137.379 313.512 136.882 313.343C136.385 313.175 135.96 312.877 135.665 312.492C135.393 312.11 135.247 311.671 135.242 311.223C135.237 310.775 135.374 310.333 135.636 309.947C135.899 309.561 136.279 309.244 136.734 309.031C137.189 308.818 137.703 308.716 138.22 308.737H139.02C139.474 308.756 139.907 308.907 140.25 309.166C140.592 309.424 140.825 309.775 140.909 310.162V310.181Z" fill="white"/>
<path d="M141.851 310.047C141.992 310.767 141.901 311.508 141.589 312.183C141.276 312.857 140.757 313.435 140.091 313.848C139.308 314.305 138.379 314.512 137.451 314.437C136.869 314.375 136.312 314.184 135.83 313.881C135.348 313.578 134.955 313.172 134.686 312.699C134.417 312.226 134.28 311.701 134.287 311.169C134.295 310.637 134.446 310.115 134.728 309.648C135.052 309.086 135.537 308.613 136.132 308.28C136.819 307.925 137.604 307.753 138.394 307.786C138.948 307.77 139.501 307.84 140.028 307.995C140.5 308.178 140.914 308.465 141.232 308.83C141.551 309.195 141.763 309.626 141.851 310.085C141.911 310.225 141.936 310.377 141.922 310.527C141.908 310.677 141.856 310.822 141.77 310.952C141.685 311.081 141.568 311.191 141.429 311.273C141.289 311.355 141.131 311.407 140.966 311.425C140.801 311.443 140.633 311.426 140.477 311.376C140.32 311.327 140.177 311.245 140.061 311.138C139.944 311.03 139.856 310.9 139.803 310.757C139.75 310.615 139.734 310.462 139.756 310.313C139.756 310.142 139.756 310.313 139.756 310.313C139.761 310.256 139.761 310.199 139.756 310.142C139.756 310.047 139.756 310.142 139.756 310.142L139.63 309.971C139.505 309.8 139.819 310.104 139.63 309.971L139.463 309.857C139.463 309.762 139.463 309.857 139.463 309.857C139.463 309.857 139.232 309.762 139.211 309.743H138.08H137.703C137.891 309.743 137.933 309.743 137.703 309.743H137.493H137.347C137.2 309.857 137.347 309.743 137.347 309.743C137.253 309.811 137.155 309.874 137.053 309.933L136.928 310.028C136.76 310.142 137.116 309.857 136.928 310.028C136.84 310.101 136.763 310.184 136.697 310.275L136.592 310.389C136.467 310.56 136.718 310.18 136.592 310.389L136.446 310.674V310.807C136.446 310.598 136.446 310.997 136.446 310.807C136.436 310.915 136.436 311.023 136.446 311.13C136.437 311.181 136.437 311.232 136.446 311.282C136.446 310.997 136.446 311.13 136.446 311.282C136.446 311.434 136.446 311.472 136.446 311.567C136.446 311.662 136.446 311.7 136.446 311.567V311.719V311.871C136.341 311.757 136.572 312.118 136.446 311.871L136.697 312.175C136.697 312.175 136.697 312.289 136.697 312.175C136.756 312.21 136.806 312.255 136.844 312.308L137.011 312.422C136.802 312.327 137.2 312.555 137.011 312.422H137.2H137.347H137.724C137.807 312.432 137.892 312.432 137.975 312.422H138.248L138.625 312.289C138.693 312.234 138.771 312.189 138.855 312.156L139.002 312.042H139.107C138.96 312.156 138.981 312.137 139.107 312.042L139.358 311.776L139.484 311.624C139.484 311.757 139.484 311.776 139.484 311.624V311.51C139.484 311.51 139.588 311.206 139.672 311.13C139.672 311.377 139.756 311.054 139.672 311.13V310.883C139.672 310.883 139.672 310.75 139.672 310.693C139.683 310.541 139.683 310.389 139.672 310.237C139.643 309.976 139.727 309.714 139.907 309.508C140.087 309.302 140.349 309.168 140.636 309.135C140.93 309.113 141.221 309.197 141.448 309.367C141.675 309.538 141.819 309.781 141.851 310.047Z" fill="#E57B61"/>
<path d="M113.72 309.222C113.644 309.712 113.721 310.213 113.942 310.662C114.163 311.111 114.518 311.486 114.963 311.742C115.407 311.998 115.921 312.122 116.439 312.099C116.957 312.076 117.456 311.906 117.874 311.612C118.291 311.318 118.608 310.912 118.785 310.445C118.961 309.979 118.989 309.473 118.864 308.991C118.74 308.51 118.47 308.074 118.087 307.74C117.704 307.405 117.226 307.187 116.713 307.112C116.371 307.062 116.023 307.077 115.687 307.156C115.352 307.235 115.036 307.377 114.758 307.573C114.48 307.769 114.245 308.015 114.067 308.298C113.889 308.581 113.771 308.895 113.72 309.222Z" fill="#2C120B"/>
<path d="M103.122 306.857C102.57 309.377 102.555 311.978 103.078 314.505C103.601 317.031 104.651 319.431 106.164 321.561L110.962 308.551C111.714 307.059 111.903 305.365 111.497 303.756C110.879 302.158 108.455 301.343 107.385 302.637C106.345 302.913 105.402 303.45 104.652 304.192C103.903 304.934 103.374 305.854 103.122 306.857Z" fill="#E57B61"/>
<path d="M52.4816 266.596C53.0835 268.737 53.6686 270.895 54.2537 272.989C54.2856 273.065 54.3013 273.147 54.3 273.23C54.2988 273.312 54.2806 273.393 54.2464 273.469C54.2123 273.545 54.1629 273.613 54.101 273.671C54.0392 273.728 53.9661 273.773 53.8859 273.804C53.8058 273.834 53.7202 273.849 53.634 273.848C53.5478 273.847 53.4626 273.829 53.3834 273.797C53.3042 273.764 53.2326 273.717 53.1725 273.658C53.1124 273.599 53.0652 273.529 53.0333 273.452C52.4482 271.31 51.8631 269.153 51.2612 267.059C51.2043 266.904 51.2106 266.734 51.2787 266.583C51.3468 266.432 51.4718 266.311 51.629 266.244C51.709 266.213 51.7948 266.197 51.8811 266.198C51.9675 266.199 52.0529 266.216 52.1322 266.249C52.2115 266.282 52.2833 266.329 52.3433 266.389C52.4033 266.448 52.4503 266.519 52.4816 266.596Z" fill="#B2482E"/>
<path d="M46.0951 270.702L47.0648 276.84C47.1985 277.639 45.8945 277.783 45.7608 277L44.7577 270.862C44.6239 270.063 45.9279 269.919 46.0617 270.718L46.0951 270.702Z" fill="#B2482E"/>
<path d="M42.4504 273.244L43.7712 278.885C43.7829 278.967 43.7774 279.051 43.7551 279.131C43.7327 279.211 43.694 279.286 43.6411 279.351C43.5882 279.416 43.5222 279.471 43.4469 279.512C43.3716 279.553 43.2887 279.579 43.2028 279.589C43.0312 279.603 42.8602 279.555 42.7239 279.454C42.5876 279.354 42.4959 279.208 42.4672 279.045C42.0325 277.159 41.5811 275.273 41.1464 273.387C41.1365 273.306 41.1436 273.223 41.1673 273.143C41.1909 273.064 41.2306 272.99 41.2842 272.926C41.3377 272.861 41.4041 272.807 41.4794 272.767C41.5547 272.727 41.6376 272.702 41.7232 272.692C41.8088 272.683 41.8956 272.689 41.9784 272.712C42.0613 272.735 42.1387 272.773 42.2062 272.824C42.2738 272.875 42.3301 272.938 42.372 273.01C42.4139 273.082 42.4405 273.162 42.4504 273.244Z" fill="#B2482E"/>
<path d="M38.2209 275.002C38.8395 277.08 39.4748 279.157 40.1101 281.251C40.1419 281.328 40.1576 281.41 40.1564 281.492C40.1551 281.575 40.1369 281.656 40.1028 281.732C40.0686 281.807 40.0192 281.876 39.9573 281.933C39.8954 281.991 39.8224 282.036 39.7423 282.066C39.6621 282.097 39.5765 282.112 39.4903 282.111C39.404 282.109 39.3189 282.092 39.2398 282.059C39.1606 282.027 39.0889 281.979 39.0288 281.92C38.9688 281.861 38.9214 281.791 38.8896 281.715C38.2543 279.621 37.619 277.543 37.0004 275.465C36.9686 275.389 36.9529 275.307 36.9542 275.225C36.9554 275.142 36.9736 275.061 37.0078 274.985C37.0768 274.832 37.2064 274.712 37.3682 274.65C37.5301 274.589 37.7108 274.591 37.8707 274.657C38.0306 274.723 38.1566 274.847 38.2209 275.002Z" fill="#B2482E"/>
<path d="M177.484 332.716C171.134 335.516 164.524 337.742 157.74 339.365C157.654 339.376 157.567 339.371 157.483 339.349C157.4 339.328 157.321 339.291 157.253 339.24C157.184 339.19 157.127 339.127 157.084 339.055C157.042 338.983 157.014 338.904 157.004 338.821C156.985 338.657 157.033 338.491 157.14 338.36C157.246 338.229 157.401 338.142 157.573 338.118C164.247 336.53 170.751 334.347 176.999 331.597C177.768 331.261 178.236 332.428 177.484 332.764V332.716Z" fill="#B2482E"/>
<path d="M28.8087 244.682C24.0449 248.087 18.6752 250.637 12.9599 252.21C12.0236 252.466 11.4218 251.108 12.3747 250.836C17.9576 249.303 23.2069 246.824 27.8725 243.516C28.0343 243.397 28.2388 243.345 28.4411 243.37C28.6433 243.396 28.8267 243.497 28.9508 243.652C29.075 243.806 29.1297 244.002 29.1031 244.195C29.0764 244.388 28.9705 244.564 28.8087 244.682Z" fill="#E57B61"/>
</svg>
