<svg width="152" height="24" viewBox="0 0 152 24" fill="none" xmlns="http://www.w3.org/2000/svg">
<path d="M11.2827 3.45332C11.5131 2.98638 11.6284 2.75291 11.7848 2.67831C11.9209 2.61341 12.0791 2.61341 12.2152 2.67831C12.3717 2.75291 12.4869 2.98638 12.7174 3.45332L14.9041 7.88328C14.9721 8.02113 15.0061 8.09006 15.0558 8.14358C15.0999 8.19096 15.1527 8.22935 15.2113 8.25662C15.2776 8.28742 15.3536 8.29854 15.5057 8.32077L20.397 9.03571C20.9121 9.11099 21.1696 9.14863 21.2888 9.27444C21.3925 9.38389 21.4412 9.5343 21.4215 9.68377C21.3988 9.85558 21.2124 10.0372 20.8395 10.4004L17.3014 13.8464C17.1912 13.9538 17.136 14.0076 17.1004 14.0715C17.0689 14.128 17.0487 14.1902 17.0409 14.2545C17.0321 14.3271 17.0451 14.403 17.0711 14.5547L17.906 19.4221C17.994 19.9355 18.038 20.1922 17.9553 20.3445C17.8833 20.477 17.7554 20.57 17.6071 20.5975C17.4366 20.6291 17.2061 20.5078 16.7451 20.2654L12.3724 17.9658C12.2361 17.8942 12.168 17.8584 12.0962 17.8443C12.0327 17.8318 11.9673 17.8318 11.9038 17.8443C11.832 17.8584 11.7639 17.8942 11.6277 17.9658L7.25492 20.2654C6.79392 20.5078 6.56341 20.6291 6.39297 20.5975C6.24468 20.57 6.11672 20.477 6.04474 20.3445C5.962 20.1922 6.00603 19.9355 6.09407 19.4221L6.92889 14.5547C6.95491 14.403 6.96793 14.3271 6.95912 14.2545C6.95132 14.1902 6.93111 14.128 6.89961 14.0715C6.86402 14.0076 6.80888 13.9538 6.69859 13.8464L3.16056 10.4004C2.78766 10.0372 2.60121 9.85558 2.57853 9.68377C2.55879 9.5343 2.60755 9.38389 2.71125 9.27444C2.83044 9.14863 3.08797 9.11099 3.60304 9.03571L8.49431 8.32077C8.64642 8.29854 8.72248 8.28742 8.78872 8.25662C8.84736 8.22935 8.90016 8.19096 8.94419 8.14358C8.99391 8.09006 9.02793 8.02113 9.09597 7.88328L11.2827 3.45332Z" fill="#FFD361" stroke="#FFD361" stroke-width="2" stroke-linecap="round" stroke-linejoin="round"/>
<path d="M43.2827 3.45332C43.5131 2.98638 43.6284 2.75291 43.7848 2.67831C43.9209 2.61341 44.0791 2.61341 44.2152 2.67831C44.3717 2.75291 44.4869 2.98638 44.7174 3.45332L46.9041 7.88328C46.9721 8.02113 47.0061 8.09006 47.0558 8.14358C47.0999 8.19096 47.1527 8.22935 47.2113 8.25662C47.2776 8.28742 47.3536 8.29854 47.5057 8.32077L52.397 9.03571C52.9121 9.11099 53.1696 9.14863 53.2888 9.27444C53.3925 9.38389 53.4412 9.5343 53.4215 9.68377C53.3988 9.85558 53.2124 10.0372 52.8395 10.4004L49.3014 13.8464C49.1912 13.9538 49.136 14.0076 49.1004 14.0715C49.0689 14.128 49.0487 14.1902 49.0409 14.2545C49.0321 14.3271 49.0451 14.403 49.0711 14.5547L49.906 19.4221C49.994 19.9355 50.038 20.1922 49.9553 20.3445C49.8833 20.477 49.7554 20.57 49.6071 20.5975C49.4366 20.6291 49.2061 20.5078 48.7451 20.2654L44.3724 17.9658C44.2361 17.8942 44.168 17.8584 44.0962 17.8443C44.0327 17.8318 43.9673 17.8318 43.9038 17.8443C43.832 17.8584 43.7639 17.8942 43.6277 17.9658L39.2549 20.2654C38.7939 20.5078 38.5634 20.6291 38.393 20.5975C38.2447 20.57 38.1167 20.477 38.0447 20.3445C37.962 20.1922 38.006 19.9355 38.0941 19.4221L38.9289 14.5547C38.9549 14.403 38.9679 14.3271 38.9591 14.2545C38.9513 14.1902 38.9311 14.128 38.8996 14.0715C38.864 14.0076 38.8089 13.9538 38.6986 13.8464L35.1606 10.4004C34.7877 10.0372 34.6012 9.85558 34.5785 9.68377C34.5588 9.5343 34.6076 9.38389 34.7113 9.27444C34.8304 9.14863 35.088 9.11099 35.603 9.03571L40.4943 8.32077C40.6464 8.29854 40.7225 8.28742 40.7887 8.25662C40.8474 8.22935 40.9002 8.19096 40.9442 8.14358C40.9939 8.09006 41.0279 8.02113 41.096 7.88328L43.2827 3.45332Z" fill="#FFD361" stroke="#FFD361" stroke-width="2" stroke-linecap="round" stroke-linejoin="round"/>
<path d="M75.2827 3.45332C75.5131 2.98638 75.6284 2.75291 75.7848 2.67831C75.9209 2.61341 76.0791 2.61341 76.2152 2.67831C76.3717 2.75291 76.4869 2.98638 76.7174 3.45332L78.9041 7.88328C78.9721 8.02113 79.0061 8.09006 79.0558 8.14358C79.0999 8.19096 79.1527 8.22935 79.2113 8.25662C79.2776 8.28742 79.3536 8.29854 79.5057 8.32077L84.397 9.03571C84.9121 9.11099 85.1696 9.14863 85.2888 9.27444C85.3925 9.38389 85.4412 9.5343 85.4215 9.68377C85.3988 9.85558 85.2124 10.0372 84.8395 10.4004L81.3014 13.8464C81.1912 13.9538 81.136 14.0076 81.1004 14.0715C81.0689 14.128 81.0487 14.1902 81.0409 14.2545C81.0321 14.3271 81.0451 14.403 81.0711 14.5547L81.906 19.4221C81.994 19.9355 82.038 20.1922 81.9553 20.3445C81.8833 20.477 81.7554 20.57 81.6071 20.5975C81.4366 20.6291 81.2061 20.5078 80.7451 20.2654L76.3724 17.9658C76.2361 17.8942 76.168 17.8584 76.0962 17.8443C76.0327 17.8318 75.9673 17.8318 75.9038 17.8443C75.832 17.8584 75.7639 17.8942 75.6277 17.9658L71.2549 20.2654C70.7939 20.5078 70.5634 20.6291 70.393 20.5975C70.2447 20.57 70.1167 20.477 70.0447 20.3445C69.962 20.1922 70.006 19.9355 70.0941 19.4221L70.9289 14.5547C70.9549 14.403 70.9679 14.3271 70.9591 14.2545C70.9513 14.1902 70.9311 14.128 70.8996 14.0715C70.864 14.0076 70.8089 13.9538 70.6986 13.8464L67.1606 10.4004C66.7877 10.0372 66.6012 9.85558 66.5785 9.68377C66.5588 9.5343 66.6076 9.38389 66.7113 9.27444C66.8304 9.14863 67.088 9.11099 67.603 9.03571L72.4943 8.32077C72.6464 8.29854 72.7225 8.28742 72.7887 8.25662C72.8474 8.22935 72.9002 8.19096 72.9442 8.14358C72.9939 8.09006 73.0279 8.02113 73.096 7.88328L75.2827 3.45332Z" fill="#FFD361" stroke="#FFD361" stroke-width="2" stroke-linecap="round" stroke-linejoin="round"/>
<path d="M107.283 3.45332C107.513 2.98638 107.628 2.75291 107.785 2.67831C107.921 2.61341 108.079 2.61341 108.215 2.67831C108.372 2.75291 108.487 2.98638 108.717 3.45332L110.904 7.88328C110.972 8.02113 111.006 8.09006 111.056 8.14358C111.1 8.19096 111.153 8.22935 111.211 8.25662C111.278 8.28742 111.354 8.29854 111.506 8.32077L116.397 9.03571C116.912 9.11099 117.17 9.14863 117.289 9.27444C117.392 9.38389 117.441 9.5343 117.422 9.68377C117.399 9.85558 117.212 10.0372 116.839 10.4004L113.301 13.8464C113.191 13.9538 113.136 14.0076 113.1 14.0715C113.069 14.128 113.049 14.1902 113.041 14.2545C113.032 14.3271 113.045 14.403 113.071 14.5547L113.906 19.4221C113.994 19.9355 114.038 20.1922 113.955 20.3445C113.883 20.477 113.755 20.57 113.607 20.5975C113.437 20.6291 113.206 20.5078 112.745 20.2654L108.372 17.9658C108.236 17.8942 108.168 17.8584 108.096 17.8443C108.033 17.8318 107.967 17.8318 107.904 17.8443C107.832 17.8584 107.764 17.8942 107.628 17.9658L103.255 20.2654C102.794 20.5078 102.563 20.6291 102.393 20.5975C102.245 20.57 102.117 20.477 102.045 20.3445C101.962 20.1922 102.006 19.9355 102.094 19.4221L102.929 14.5547C102.955 14.403 102.968 14.3271 102.959 14.2545C102.951 14.1902 102.931 14.128 102.9 14.0715C102.864 14.0076 102.809 13.9538 102.699 13.8464L99.1606 10.4004C98.7877 10.0372 98.6012 9.85558 98.5785 9.68377C98.5588 9.5343 98.6076 9.38389 98.7113 9.27444C98.8304 9.14863 99.088 9.11099 99.603 9.03571L104.494 8.32077C104.646 8.29854 104.722 8.28742 104.789 8.25662C104.847 8.22935 104.9 8.19096 104.944 8.14358C104.994 8.09006 105.028 8.02113 105.096 7.88328L107.283 3.45332Z" fill="#FFD361" stroke="#FFD361" stroke-width="2" stroke-linecap="round" stroke-linejoin="round"/>
<path d="M139.283 3.45332C139.513 2.98638 139.628 2.75291 139.785 2.67831C139.921 2.61341 140.079 2.61341 140.215 2.67831C140.372 2.75291 140.487 2.98638 140.717 3.45332L142.904 7.88328C142.972 8.02113 143.006 8.09006 143.056 8.14358C143.1 8.19096 143.153 8.22935 143.211 8.25662C143.278 8.28742 143.354 8.29854 143.506 8.32077L148.397 9.03571C148.912 9.11099 149.17 9.14863 149.289 9.27444C149.392 9.38389 149.441 9.5343 149.422 9.68377C149.399 9.85558 149.212 10.0372 148.839 10.4004L145.301 13.8464C145.191 13.9538 145.136 14.0076 145.1 14.0715C145.069 14.128 145.049 14.1902 145.041 14.2545C145.032 14.3271 145.045 14.403 145.071 14.5547L145.906 19.4221C145.994 19.9355 146.038 20.1922 145.955 20.3445C145.883 20.477 145.755 20.57 145.607 20.5975C145.437 20.6291 145.206 20.5078 144.745 20.2654L140.372 17.9658C140.236 17.8942 140.168 17.8584 140.096 17.8443C140.033 17.8318 139.967 17.8318 139.904 17.8443C139.832 17.8584 139.764 17.8942 139.628 17.9658L135.255 20.2654C134.794 20.5078 134.563 20.6291 134.393 20.5975C134.245 20.57 134.117 20.477 134.045 20.3445C133.962 20.1922 134.006 19.9355 134.094 19.4221L134.929 14.5547C134.955 14.403 134.968 14.3271 134.959 14.2545C134.951 14.1902 134.931 14.128 134.9 14.0715C134.864 14.0076 134.809 13.9538 134.699 13.8464L131.161 10.4004C130.788 10.0372 130.601 9.85558 130.579 9.68377C130.559 9.5343 130.608 9.38389 130.711 9.27444C130.83 9.14863 131.088 9.11099 131.603 9.03571L136.494 8.32077C136.646 8.29854 136.722 8.28742 136.789 8.25662C136.847 8.22935 136.9 8.19096 136.944 8.14358C136.994 8.09006 137.028 8.02113 137.096 7.88328L139.283 3.45332Z" fill="#FFD361" stroke="#FFD361" stroke-width="2" stroke-linecap="round" stroke-linejoin="round"/>
</svg>
