<svg width="140" height="252" viewBox="0 0 140 252" fill="none" xmlns="http://www.w3.org/2000/svg">
<g opacity="0.5">
<path opacity="0.5" fill-rule="evenodd" clip-rule="evenodd" d="M10.1705 251.697C11.9513 251.897 13.7615 252 15.5957 252H91.9987C118.508 252 139.999 230.51 139.999 204V96.6271C130.01 102.813 117.71 119.859 117.71 137.253C117.71 148.367 120.362 154.349 122.982 160.257C125.416 165.747 127.822 171.175 128.048 180.597C128.516 200.162 127.637 213.437 106.853 227.928C88.0953 241.006 77.5887 242.362 43.6224 246.745C38.5931 247.394 33.0495 248.109 26.8886 248.939C19.6342 249.916 14.1777 250.837 10.1705 251.697Z" fill="url(#paint0_linear_1636_36868)"/>
<path opacity="0.5" fill-rule="evenodd" clip-rule="evenodd" d="M0.146484 249.459C4.99502 251.106 10.1919 252 15.5975 252H92.0004C118.51 252 140 230.509 140 204L140 0.000106812C129.013 10.7967 116.563 39.2456 116.563 67.0628C116.563 85.1563 119.167 94.4428 121.746 103.641C124.135 112.158 126.502 120.6 126.76 135.89C127.297 167.689 113.811 185.823 93.4851 209.918C73.4765 233.637 56.4622 237.259 15.7194 245.93C14.1279 246.269 12.5002 246.615 10.8348 246.971C6.79089 247.834 3.24391 248.663 0.146484 249.459Z" fill="url(#paint1_linear_1636_36868)"/>
</g>
<defs>
<linearGradient id="paint0_linear_1636_36868" x1="10.1709" y1="252" x2="163.071" y2="124.238" gradientUnits="userSpaceOnUse">
<stop stop-color="#25109A"/>
<stop offset="1" stop-color="#7F028C"/>
</linearGradient>
<linearGradient id="paint1_linear_1636_36868" x1="0.146484" y1="252" x2="213.99" y2="133.321" gradientUnits="userSpaceOnUse">
<stop stop-color="#25109A"/>
<stop offset="1" stop-color="#7F028C"/>
</linearGradient>
</defs>
</svg>
