<svg width="186" height="261" viewBox="0 0 186 261" fill="none" xmlns="http://www.w3.org/2000/svg">
<g opacity="0.5">
<path opacity="0.5" fill-rule="evenodd" clip-rule="evenodd" d="M0.00202942 261L0.00202942 48C0.00202942 21.4904 21.4924 0 48.002 0L98.0202 0C95.0119 1.57727 90.832 3.31074 85.1848 5.20321C84.0849 5.57182 83.0099 5.93089 81.9588 6.28197C55.0508 15.2699 43.8139 19.0233 30.5995 43.6085C17.1758 68.5832 8.26921 87.3794 8.62366 120.34C8.79408 136.188 10.3575 144.938 11.935 153.766C13.6384 163.3 15.3583 172.926 15.3583 191.68C15.3583 220.35 7.22806 249.668 0.00202942 261Z" fill="url(#paint0_linear_1636_36875)"/>
<path opacity="0.5" fill-rule="evenodd" clip-rule="evenodd" d="M0.00134277 137.505V48C0.00134277 21.4904 21.4917 0 48.0013 0L186 0C180.185 0.831174 171.907 1.73016 160.493 2.68944C94.2232 8.25909 89.6299 8.89761 50.172 22.3923C16.9619 33.7502 12.9217 45.1377 13.5863 62.4667C13.9068 70.8238 17.6356 75.6024 21.4108 80.4404C25.4637 85.6343 29.57 90.8966 29.57 100.729C29.57 116.091 13.7368 131.806 0.00134277 137.505Z" fill="url(#paint1_linear_1636_36875)"/>
</g>
<defs>
<linearGradient id="paint0_linear_1636_36875" x1="98.0205" y1="0" x2="-73.7854" y2="64.5215" gradientUnits="userSpaceOnUse">
<stop stop-color="#25109A"/>
<stop offset="1" stop-color="#7F028C"/>
</linearGradient>
<linearGradient id="paint1_linear_1636_36875" x1="186" y1="0" x2="54.5383" y2="177.824" gradientUnits="userSpaceOnUse">
<stop stop-color="#25109A"/>
<stop offset="1" stop-color="#7F028C"/>
</linearGradient>
</defs>
</svg>
