<svg width="1260" height="180" viewBox="0 0 1260 180" fill="none" xmlns="http://www.w3.org/2000/svg">
<g opacity="0.8">
<path opacity="0.5" fill-rule="evenodd" clip-rule="evenodd" d="M465.998 179.997H48C21.4903 179.997 0 158.506 0 131.997V51.0612C1.35361 55.0276 2.60408 58.7537 3.78251 62.265C17.0946 101.931 21.2123 114.201 60.9364 136.106C104.952 160.377 145.272 161.405 204.697 160.858C233.317 160.594 249.801 157.784 266.476 154.941C284.424 151.882 302.592 148.785 336.35 148.785C397.397 148.785 457.036 167.964 465.998 179.997Z" fill="url(#paint0_linear_149_14349)"/>
<path opacity="0.5" fill-rule="evenodd" clip-rule="evenodd" d="M739.277 180H48C21.4903 180 0 158.51 0 132V83.6456C1.17368 84.8737 2.36995 86.1779 3.58891 87.5616C4.66099 88.7787 5.70532 89.9681 6.72643 91.131C32.8674 120.904 43.784 133.337 115.289 147.958C187.926 162.811 242.594 172.666 338.458 172.273C384.55 172.085 409.999 170.355 435.677 168.61C463.405 166.725 491.401 164.822 545.946 164.822C623.073 164.822 701.811 172.518 739.277 180Z" fill="url(#paint1_linear_149_14349)"/>
</g>
<g opacity="0.8">
<path opacity="0.5" fill-rule="evenodd" clip-rule="evenodd" d="M571.999 8.39233e-05H1212C1238.51 8.39233e-05 1260 21.4904 1260 48.0001V68.5748C1255.78 66.4698 1251.13 63.5188 1246.05 59.5029C1245.08 58.7365 1244.14 57.9875 1243.21 57.2552C1219.56 38.5063 1209.68 30.6767 1144.98 21.4692C1079.25 12.1159 1029.79 5.90999 943.046 6.15696C901.34 6.2757 878.312 7.36505 855.078 8.46421C829.988 9.65113 804.657 10.8495 755.302 10.8495C679.102 10.8495 601.165 5.07167 571.999 8.39233e-05Z" fill="url(#paint2_linear_149_14349)"/>
<path opacity="0.5" fill-rule="evenodd" clip-rule="evenodd" d="M894.898 0.000167847H1212C1238.51 0.000167847 1260 21.4905 1260 48.0002V126.742C1257.72 122.778 1255.25 117.031 1252.61 108.987C1237.84 64.0388 1236.15 60.9235 1200.36 34.161C1170.24 11.6361 1140.05 8.89582 1094.1 9.34658C1071.93 9.56396 1059.26 12.093 1046.43 14.6536C1032.66 17.4025 1018.71 20.1876 992.634 20.1876C951.705 20.1876 909.83 9.34665 894.898 0.000167847Z" fill="url(#paint3_linear_149_14349)"/>
</g>
<defs>
<linearGradient id="paint0_linear_149_14349" x1="0" y1="51.0612" x2="66.2759" y2="290.595" gradientUnits="userSpaceOnUse">
<stop stop-color="#25109A"/>
<stop offset="1" stop-color="#7F028C"/>
</linearGradient>
<linearGradient id="paint1_linear_149_14349" x1="0" y1="83.6456" x2="24.6973" y2="273.135" gradientUnits="userSpaceOnUse">
<stop stop-color="#25109A"/>
<stop offset="1" stop-color="#7F028C"/>
</linearGradient>
<linearGradient id="paint2_linear_149_14349" x1="1260" y1="68.5747" x2="1246.46" y2="-67.2256" gradientUnits="userSpaceOnUse">
<stop stop-color="#25109A"/>
<stop offset="1" stop-color="#7F028C"/>
</linearGradient>
<linearGradient id="paint3_linear_149_14349" x1="1260" y1="126.742" x2="1181.47" y2="-99.4802" gradientUnits="userSpaceOnUse">
<stop stop-color="#25109A"/>
<stop offset="1" stop-color="#7F028C"/>
</linearGradient>
</defs>
</svg>
