<svg width="688" height="181" viewBox="0 0 688 181" fill="none" xmlns="http://www.w3.org/2000/svg">
<g opacity="0.8">
<path opacity="0.5" fill-rule="evenodd" clip-rule="evenodd" d="M688.001 181H48C21.4903 181 0 159.51 0 133V81.9476C4.21909 84.9882 8.86621 89.2507 13.9492 95.0513C14.9192 96.1584 15.8642 97.2403 16.7881 98.2982C40.4416 125.38 50.3195 136.689 115.02 149.989C180.746 163.499 230.211 172.463 316.954 172.107C358.66 171.935 381.687 170.362 404.922 168.774C430.012 167.06 455.343 165.329 504.698 165.329C580.898 165.329 658.835 173.674 688.001 181Z" fill="url(#paint0_linear_143_13830)"/>
<path opacity="0.5" fill-rule="evenodd" clip-rule="evenodd" d="M362.614 181H48C21.4903 181 0 159.51 0 133V0.178223C2.24833 5.89419 4.68577 14.1234 7.29088 25.5753C22.0602 90.5 23.7534 95 59.538 133.657C89.6564 166.193 119.853 170.151 165.806 169.5C187.967 169.186 200.638 165.533 213.467 161.834C227.24 157.864 241.195 153.841 267.267 153.841C306.189 153.841 345.965 168.001 362.614 181Z" fill="url(#paint1_linear_143_13830)"/>
</g>
<defs>
<linearGradient id="paint0_linear_143_13830" x1="0" y1="81.9478" x2="27.9423" y2="276.03" gradientUnits="userSpaceOnUse">
<stop stop-color="#25109A"/>
<stop offset="1" stop-color="#7F028C"/>
</linearGradient>
<linearGradient id="paint1_linear_143_13830" x1="0" y1="0.178223" x2="144.425" y2="289.803" gradientUnits="userSpaceOnUse">
<stop stop-color="#25109A"/>
<stop offset="1" stop-color="#7F028C"/>
</linearGradient>
</defs>
</svg>
