<svg width="126" height="127" viewBox="0 0 126 127" fill="none" xmlns="http://www.w3.org/2000/svg">
<path d="M19.728 55.0398L8.62811 51.5475L9.26076 49.5367L14.3609 51.1413L14.4035 51.0058L10.6659 45.0707L11.4384 42.6155L15.0687 48.4752L22.5502 46.0699L21.7897 48.4872L15.9891 50.3015L17.0546 51.9889L20.3607 53.0291L19.728 55.0398Z" fill="url(#paint0_linear_1782_2607)"/>
<path d="M22.695 45.8289L12.6924 39.8832L13.7695 38.0711L18.004 40.5882L20.7591 35.9532L16.5246 33.4361L17.6046 31.6192L27.6073 37.565L26.5273 39.3819L22.2781 36.8561L19.523 41.4911L23.7721 44.0169L22.695 45.8289Z" fill="url(#paint1_linear_1782_2607)"/>
<path d="M29.2834 35.6804L27.7052 37.284L22.2851 26.202L24.1105 24.3473L35.2815 29.5858L33.7033 31.1894L24.9305 26.9162L24.8667 26.981L29.2834 35.6804ZM26.0834 32.4274L30.3877 28.0539L31.5945 29.2415L27.2902 33.6151L26.0834 32.4274ZM21.8258 25.0325L20.8679 22.3041L22.2787 20.8705L22.9059 23.9351L21.8258 25.0325Z" fill="url(#paint2_linear_1782_2607)"/>
<path d="M29.6621 19.1708L31.8915 17.8731L39.1189 23.4222L39.2368 23.3536L37.9804 14.3286L40.2097 13.0309L46.0638 23.0874L44.3157 24.105L40.2939 17.196L40.2006 17.2504L41.426 25.7478L40.1198 26.5081L33.3272 21.2317L33.2339 21.2861L37.2643 28.2098L35.5162 29.2274L29.6621 19.1708Z" fill="url(#paint3_linear_1782_2607)"/>
<path d="M50.7055 21.6805L48.5502 10.2455L52.8383 9.43728C53.7168 9.27171 54.4847 9.29657 55.142 9.51188C55.8031 9.72649 56.3402 10.0916 56.7535 10.6074C57.1698 11.1186 57.4463 11.7372 57.5832 12.4631C57.7214 13.1964 57.6897 13.8769 57.4881 14.5046C57.2865 15.1324 56.915 15.6669 56.3737 16.1081C55.8318 16.5456 55.1197 16.8475 54.2375 17.0138L51.3955 17.5494L51.0745 15.8465L53.6373 15.3634C54.151 15.2666 54.5548 15.098 54.8487 14.8576C55.1426 14.6172 55.3382 14.3259 55.4356 13.9837C55.5367 13.6409 55.5491 13.2666 55.4726 12.8609C55.3961 12.4551 55.2487 12.1129 55.0304 11.8341C54.8159 11.5546 54.5268 11.3605 54.1632 11.2517C53.8027 11.1385 53.3637 11.1306 52.8463 11.2282L50.9479 11.586L52.777 21.2901L50.7055 21.6805Z" fill="url(#paint4_linear_1782_2607)"/>
<path d="M60.3842 19.969L60.9464 8.34622L63.0519 8.44806L62.8139 13.3684L68.1996 13.6289L68.4376 8.70856L70.5488 8.81067L69.9866 20.4334L67.8754 20.3313L68.1143 15.3939L62.7285 15.1334L62.4897 20.0708L60.3842 19.969Z" fill="url(#paint5_linear_1782_2607)"/>
<path d="M72.3885 21.0184L70.2322 20.3757L77.482 10.3943L79.9758 11.1376L80.5834 23.461L78.4271 22.8183L78.0908 13.0659L78.0037 13.0399L72.3885 21.0184ZM73.7625 16.6671L79.6432 18.4199L79.1596 20.0425L73.2789 18.2897L73.7625 16.6671ZM78.2999 9.44047L80.2612 7.31561L82.1888 7.89013L79.7755 9.88029L78.2999 9.44047Z" fill="url(#paint6_linear_1782_2607)"/>
<path d="M98.7397 21.2385L92.0757 30.7777L90.5386 29.704L90.583 20.0663L90.5038 20.011L85.9646 26.5086L84.2366 25.3015L90.9005 15.7622L92.4469 16.8425L92.3947 26.4816L92.4785 26.5402L97.0209 20.0378L98.7397 21.2385Z" fill="url(#paint7_linear_1782_2607)"/>
<path d="M103.927 32.0934C104.097 31.821 104.219 31.5424 104.293 31.2578C104.373 30.9735 104.403 30.687 104.383 30.3982C104.366 30.1124 104.294 29.8292 104.167 29.5488C104.042 29.2659 103.866 28.9927 103.638 28.7292C103.228 28.2566 102.745 27.9385 102.188 27.7748C101.63 27.6111 101.029 27.6228 100.385 27.81C99.7454 27.9975 99.0965 28.3764 98.4377 28.9465C97.7733 29.5216 97.3009 30.1133 97.0208 30.7214C96.7406 31.3296 96.6414 31.924 96.7231 32.5046C96.8076 33.0826 97.0631 33.618 97.4894 34.1106C97.8761 34.5574 98.2967 34.8697 98.7512 35.0475C99.2081 35.2281 99.6709 35.2709 100.14 35.1758C100.611 35.0782 101.06 34.8447 101.487 34.4753L101.744 34.8846L99.6763 32.4959L100.922 31.4176L104.012 34.9877L102.955 35.9024C102.202 36.5543 101.412 36.9579 100.584 37.1131C99.7565 37.2683 98.9509 37.1941 98.1672 36.8905C97.3863 36.5845 96.681 36.0677 96.0514 35.3402C95.3499 34.5297 94.9157 33.6606 94.749 32.7328C94.5876 31.8055 94.6946 30.8787 95.0702 29.9525C95.4512 29.0266 96.1056 28.1621 97.0336 27.3589C97.7439 26.7442 98.465 26.2953 99.1971 26.0124C99.9315 25.7324 100.651 25.6057 101.355 25.6323C102.063 25.6564 102.73 25.8253 103.357 26.1391C103.987 26.4504 104.551 26.8938 105.05 27.4695C105.471 27.9564 105.792 28.4723 106.013 29.0173C106.238 29.5598 106.361 30.1071 106.382 30.6592C106.407 31.2141 106.332 31.7525 106.157 32.2743C105.983 32.7961 105.708 33.2771 105.332 33.7173L103.927 32.0934Z" fill="url(#paint8_linear_1782_2607)"/>
<path d="M100.897 41.5321L99.8892 39.5205L112.128 37.9706L113.294 40.2972L104.727 49.1773L103.72 47.1657L110.597 40.2435L110.557 40.1622L100.897 41.5321ZM105.009 39.5544L107.758 45.0407L106.244 45.7991L103.495 40.3129L105.009 39.5544Z" fill="url(#paint9_linear_1782_2607)"/>
<path d="M116.06 46.43L116.58 48.753L112.18 52.657L112.205 52.7679L117.851 54.4191L118.372 56.7421L110.327 54.208L106.091 55.1579L105.631 53.1065L109.867 52.1567L116.06 46.43Z" fill="url(#paint10_linear_1782_2607)"/>
<path d="M106.957 71.9406L118.056 75.433L117.424 77.4438L112.324 75.8391L112.281 75.9746L116.019 81.9098L115.246 84.365L111.616 78.5053L104.134 80.9105L104.895 78.4933L110.695 76.6789L109.63 74.9916L106.324 73.9514L106.957 71.9406Z" fill="url(#paint11_linear_1782_2607)"/>
<path d="M103.99 81.1516L113.992 87.0973L112.915 88.9093L108.681 86.3923L105.925 91.0273L110.16 93.5443L109.08 95.3612L99.0773 89.4155L100.157 87.5986L104.406 90.1244L107.162 85.4894L102.912 82.9636L103.99 81.1516Z" fill="url(#paint12_linear_1782_2607)"/>
<path d="M97.4012 91.3006L98.9794 89.6969L104.399 100.779L102.574 102.634L91.403 97.3952L92.9813 95.7916L101.754 100.065L101.818 100L97.4012 91.3006ZM100.601 94.5535L96.2969 98.9271L95.0901 97.7394L99.3944 93.3659L100.601 94.5535ZM104.859 101.948L105.817 104.677L104.406 106.11L103.779 103.046L104.859 101.948Z" fill="url(#paint13_linear_1782_2607)"/>
<path d="M97.0224 107.81L94.7931 109.108L87.5656 103.559L87.4478 103.627L88.7042 112.652L86.4748 113.95L80.6207 103.894L82.3688 102.876L86.3907 109.785L86.484 109.731L85.2586 101.233L86.5648 100.473L93.3573 105.749L93.4506 105.695L89.4202 98.7712L91.1683 97.7536L97.0224 107.81Z" fill="url(#paint14_linear_1782_2607)"/>
<path d="M75.979 105.3L78.1344 116.735L73.8462 117.544C72.9678 117.709 72.1999 117.684 71.5426 117.469C70.8815 117.254 70.3444 116.889 69.9311 116.374C69.5148 115.862 69.2382 115.244 69.1014 114.518C68.9632 113.785 68.9949 113.104 69.1965 112.476C69.3981 111.849 69.7696 111.314 70.3108 110.873C70.8528 110.435 71.5649 110.133 72.4471 109.967L75.2891 109.432L75.6101 111.134L73.0472 111.618C72.5336 111.714 72.1298 111.883 71.8359 112.123C71.542 112.364 71.3464 112.655 71.249 112.997C71.1478 113.34 71.1355 113.714 71.212 114.12C71.2885 114.526 71.4358 114.868 71.6541 115.147C71.8687 115.426 72.1578 115.62 72.5213 115.729C72.8819 115.842 73.3208 115.85 73.8382 115.753L75.7366 115.395L73.9076 105.691L75.979 105.3Z" fill="url(#paint15_linear_1782_2607)"/>
<path d="M66.3004 107.012L65.7382 118.635L63.6327 118.533L63.8707 113.613L58.4849 113.352L58.247 118.272L56.1358 118.17L56.698 106.548L58.8091 106.65L58.5703 111.587L63.9561 111.848L64.1949 106.91L66.3004 107.012Z" fill="url(#paint16_linear_1782_2607)"/>
<path d="M54.2961 105.963L56.4523 106.605L49.2026 116.587L46.7088 115.843L46.1012 103.52L48.2575 104.163L48.5938 113.915L48.6809 113.941L54.2961 105.963ZM52.9221 110.314L47.0414 108.561L47.525 106.938L53.4057 108.691L52.9221 110.314ZM48.3847 117.54L46.4233 119.665L44.4958 119.091L46.9091 117.101L48.3847 117.54Z" fill="url(#paint17_linear_1782_2607)"/>
<path d="M27.9449 105.742L34.6089 96.2032L36.1459 97.277L36.1016 106.915L36.1808 106.97L40.7199 100.472L42.448 101.68L35.784 111.219L34.2376 110.138L34.2899 100.499L34.2061 100.441L29.6637 106.943L27.9449 105.742Z" fill="url(#paint18_linear_1782_2607)"/>
<path d="M22.7574 94.8876C22.5874 95.16 22.4652 95.4385 22.391 95.7232C22.3114 96.0075 22.2814 96.294 22.3008 96.5827C22.3178 96.8686 22.3901 97.1517 22.5175 97.4322C22.6422 97.715 22.8185 97.9882 23.0466 98.2517C23.4556 98.7243 23.9388 99.0425 24.4963 99.2062C25.0538 99.3699 25.6549 99.3582 26.2994 99.171C26.9386 98.9835 27.5876 98.6046 28.2464 98.0345C28.9108 97.4593 29.3831 96.8677 29.6633 96.2595C29.9435 95.6513 30.0427 95.057 29.961 94.4764C29.8765 93.8983 29.621 93.363 29.1946 92.8703C28.8079 92.4235 28.3874 92.1113 27.9329 91.9335C27.476 91.7529 27.0132 91.7101 26.5444 91.8052C26.0728 91.9028 25.6236 92.1363 25.1969 92.5056L24.9404 92.0964L27.0078 94.485L25.7619 95.5634L22.672 91.9933L23.7288 91.0786C24.4821 90.4266 25.2725 90.0231 26.1 89.8679C26.9276 89.7127 27.7332 89.7869 28.5169 90.0904C29.2978 90.3965 30.0031 90.9132 30.6327 91.6407C31.3342 92.4512 31.7684 93.3204 31.9351 94.2481C32.0965 95.1755 31.9894 96.1023 31.6138 97.0285C31.2329 97.9544 30.5785 98.8189 29.6505 99.622C28.9402 100.237 28.2191 100.686 27.487 100.969C26.7525 101.249 26.0331 101.375 25.3288 101.349C24.6216 101.325 23.9543 101.156 23.3271 100.842C22.697 100.531 22.1328 100.087 21.6345 99.5114C21.2131 99.0245 20.8918 98.5086 20.6706 97.9636C20.4466 97.4212 20.3236 96.8739 20.3016 96.3218C20.2771 95.7668 20.3522 95.2285 20.5268 94.7066C20.7013 94.1848 20.9764 93.7038 21.3518 93.2636L22.7574 94.8876Z" fill="url(#paint19_linear_1782_2607)"/>
<path d="M25.7875 85.4484L26.7954 87.46L14.5567 89.0099L13.3911 86.6833L21.9571 77.8031L22.965 79.8148L16.0871 86.737L16.1278 86.8182L25.7875 85.4484ZM21.6753 87.4261L18.9265 81.9398L20.4403 81.1813L23.1891 86.6676L21.6753 87.4261Z" fill="url(#paint20_linear_1782_2607)"/>
<path d="M10.625 80.551L10.1041 78.228L14.5042 74.324L14.4794 74.2131L8.83353 72.5619L8.31261 70.2389L16.3575 72.7729L20.5932 71.8231L21.0532 73.8744L16.8175 74.8243L10.625 80.551Z" fill="url(#paint21_linear_1782_2607)"/>
<defs>
<linearGradient id="paint0_linear_1782_2607" x1="2.21338" y1="50.7324" x2="15.6186" y2="35.8907" gradientUnits="userSpaceOnUse">
<stop stop-color="#25109A"/>
<stop offset="1" stop-color="#7F028C"/>
</linearGradient>
<linearGradient id="paint1_linear_1782_2607" x1="6.63574" y1="37.6182" x2="24.6984" y2="26.019" gradientUnits="userSpaceOnUse">
<stop stop-color="#25109A"/>
<stop offset="1" stop-color="#7F028C"/>
</linearGradient>
<linearGradient id="paint2_linear_1782_2607" x1="14.6011" y1="24.9375" x2="34.9109" y2="17.987" gradientUnits="userSpaceOnUse">
<stop stop-color="#25109A"/>
<stop offset="1" stop-color="#7F028C"/>
</linearGradient>
<linearGradient id="paint3_linear_1782_2607" x1="25.4688" y1="14.2485" x2="50.8961" y2="15.048" gradientUnits="userSpaceOnUse">
<stop stop-color="#25109A"/>
<stop offset="1" stop-color="#7F028C"/>
</linearGradient>
<linearGradient id="paint4_linear_1782_2607" x1="46.2437" y1="4.20459" x2="65.6533" y2="9.02577" gradientUnits="userSpaceOnUse">
<stop stop-color="#25109A"/>
<stop offset="1" stop-color="#7F028C"/>
</linearGradient>
<linearGradient id="paint5_linear_1782_2607" x1="60.1074" y1="1.93457" x2="78.8212" y2="12.4509" gradientUnits="userSpaceOnUse">
<stop stop-color="#25109A"/>
<stop offset="1" stop-color="#7F028C"/>
</linearGradient>
<linearGradient id="paint6_linear_1782_2607" x1="74.998" y1="3.01367" x2="90.656" y2="17.698" gradientUnits="userSpaceOnUse">
<stop stop-color="#25109A"/>
<stop offset="1" stop-color="#7F028C"/>
</linearGradient>
<linearGradient id="paint7_linear_1782_2607" x1="93.604" y1="9.88818" x2="103.846" y2="28.7536" gradientUnits="userSpaceOnUse">
<stop stop-color="#25109A"/>
<stop offset="1" stop-color="#7F028C"/>
</linearGradient>
<linearGradient id="paint8_linear_1782_2607" x1="105.695" y1="18.7349" x2="110.618" y2="41.0602" gradientUnits="userSpaceOnUse">
<stop stop-color="#25109A"/>
<stop offset="1" stop-color="#7F028C"/>
</linearGradient>
<linearGradient id="paint9_linear_1782_2607" x1="115.807" y1="31.1069" x2="115.824" y2="52.5732" gradientUnits="userSpaceOnUse">
<stop stop-color="#25109A"/>
<stop offset="1" stop-color="#7F028C"/>
</linearGradient>
<linearGradient id="paint10_linear_1782_2607" x1="122.192" y1="44.6938" x2="117.026" y2="65.5292" gradientUnits="userSpaceOnUse">
<stop stop-color="#25109A"/>
<stop offset="1" stop-color="#7F028C"/>
</linearGradient>
<linearGradient id="paint11_linear_1782_2607" x1="124.471" y1="76.248" x2="111.066" y2="91.0898" gradientUnits="userSpaceOnUse">
<stop stop-color="#25109A"/>
<stop offset="1" stop-color="#7F028C"/>
</linearGradient>
<linearGradient id="paint12_linear_1782_2607" x1="120.049" y1="89.3623" x2="101.986" y2="100.961" gradientUnits="userSpaceOnUse">
<stop stop-color="#25109A"/>
<stop offset="1" stop-color="#7F028C"/>
</linearGradient>
<linearGradient id="paint13_linear_1782_2607" x1="112.083" y1="102.043" x2="91.7736" y2="108.994" gradientUnits="userSpaceOnUse">
<stop stop-color="#25109A"/>
<stop offset="1" stop-color="#7F028C"/>
</linearGradient>
<linearGradient id="paint14_linear_1782_2607" x1="101.216" y1="112.732" x2="75.7884" y2="111.933" gradientUnits="userSpaceOnUse">
<stop stop-color="#25109A"/>
<stop offset="1" stop-color="#7F028C"/>
</linearGradient>
<linearGradient id="paint15_linear_1782_2607" x1="80.4409" y1="122.776" x2="61.0313" y2="117.955" gradientUnits="userSpaceOnUse">
<stop stop-color="#25109A"/>
<stop offset="1" stop-color="#7F028C"/>
</linearGradient>
<linearGradient id="paint16_linear_1782_2607" x1="66.5771" y1="125.046" x2="47.8634" y2="114.53" gradientUnits="userSpaceOnUse">
<stop stop-color="#25109A"/>
<stop offset="1" stop-color="#7F028C"/>
</linearGradient>
<linearGradient id="paint17_linear_1782_2607" x1="51.6865" y1="123.967" x2="36.0286" y2="109.283" gradientUnits="userSpaceOnUse">
<stop stop-color="#25109A"/>
<stop offset="1" stop-color="#7F028C"/>
</linearGradient>
<linearGradient id="paint18_linear_1782_2607" x1="33.0806" y1="117.093" x2="22.8386" y2="98.2274" gradientUnits="userSpaceOnUse">
<stop stop-color="#25109A"/>
<stop offset="1" stop-color="#7F028C"/>
</linearGradient>
<linearGradient id="paint19_linear_1782_2607" x1="20.9888" y1="108.246" x2="16.0664" y2="85.9207" gradientUnits="userSpaceOnUse">
<stop stop-color="#25109A"/>
<stop offset="1" stop-color="#7F028C"/>
</linearGradient>
<linearGradient id="paint20_linear_1782_2607" x1="10.8779" y1="95.8735" x2="10.8603" y2="74.4073" gradientUnits="userSpaceOnUse">
<stop stop-color="#25109A"/>
<stop offset="1" stop-color="#7F028C"/>
</linearGradient>
<linearGradient id="paint21_linear_1782_2607" x1="4.49268" y1="82.2871" x2="9.65891" y2="61.4518" gradientUnits="userSpaceOnUse">
<stop stop-color="#25109A"/>
<stop offset="1" stop-color="#7F028C"/>
</linearGradient>
</defs>
</svg>
