<svg width="761" height="224" viewBox="0 0 761 224" fill="none" xmlns="http://www.w3.org/2000/svg">
<g opacity="0.8">
<path opacity="0.5" fill-rule="evenodd" clip-rule="evenodd" d="M289.476 0H713C739.51 0 761 21.4903 761 48V199.528C758.063 193.288 754.874 184.24 751.462 171.576C748.947 162.241 746.779 153.841 744.811 146.221C731.524 94.7542 727.414 78.8344 687.765 50.4126C643.833 18.9205 603.588 17.5879 544.276 18.2975C515.71 18.6393 499.257 22.2854 482.613 25.9737C464.699 29.9435 446.565 33.9621 412.871 33.9621C359.921 33.9621 308.031 15.1689 289.476 0Z" fill="url(#paint0_linear_143_13823)"/>
<path opacity="0.5" fill-rule="evenodd" clip-rule="evenodd" d="M759.721 223.055C760.558 219.506 761 215.805 761 212V47.9998C761 21.4902 739.51 -0.000167847 713 -0.000167847H-0.000305176C32.261 16.6402 118.467 35.5975 202.751 35.5975C257.343 35.5975 285.362 31.6655 313.114 27.7711C338.814 24.1647 364.284 20.5904 410.416 20.2008C506.362 19.3904 561.076 39.7527 633.776 70.442C705.342 100.653 716.268 126.342 742.431 187.859C743.453 190.262 744.498 192.72 745.571 195.235C750.684 207.218 755.399 216.311 759.721 223.055Z" fill="url(#paint1_linear_143_13823)"/>
</g>
<defs>
<linearGradient id="paint0_linear_143_13823" x1="761" y1="199.528" x2="617.782" y2="-138.924" gradientUnits="userSpaceOnUse">
<stop stop-color="#25109A"/>
<stop offset="1" stop-color="#7F028C"/>
</linearGradient>
<linearGradient id="paint1_linear_143_13823" x1="761" y1="223.055" x2="640.587" y2="-187.761" gradientUnits="userSpaceOnUse">
<stop stop-color="#25109A"/>
<stop offset="1" stop-color="#7F028C"/>
</linearGradient>
</defs>
</svg>
